<?xml version="1.0" encoding="UTF-8" standalone="no"?>
<!-- Created with Inkscape (http://www.inkscape.org/) -->

<svg
   xmlns:dc="http://purl.org/dc/elements/1.1/"
   xmlns:cc="http://creativecommons.org/ns#"
   xmlns:rdf="http://www.w3.org/1999/02/22-rdf-syntax-ns#"
   xmlns:svg="http://www.w3.org/2000/svg"
   xmlns="http://www.w3.org/2000/svg"
   xmlns:inkscape="http://www.inkscape.org/namespaces/inkscape"
   version="1.1"
   width="591.13873"
   height="144.32564"
   id="svg26431">
  <defs
     id="defs26433">
    <marker
       refX="0"
       refY="0"
       orient="auto"
       id="Arrow1Send"
       style="overflow:visible">
      <path
         d="M 0,0 5,-5 -12.5,0 5,5 0,0 z"
         transform="matrix(-0.2,0,0,-0.2,-1.2,0)"
         id="path4074"
         style="fill-rule:evenodd;stroke:#000000;stroke-width:1pt" />
    </marker>
    <inkscape:path-effect
       effect="spiro"
       id="path-effect31821" />
    <marker
       refX="0"
       refY="0"
       orient="auto"
       id="Arrow1Mend"
       style="overflow:visible">
      <path
         d="M 0,0 5,-5 -12.5,0 5,5 0,0 z"
         transform="matrix(-0.4,0,0,-0.4,-4,0)"
         id="path4068"
         style="fill-rule:evenodd;stroke:#000000;stroke-width:1pt" />
    </marker>
    <marker
       refX="0"
       refY="0"
       orient="auto"
       id="Arrow1Lend"
       style="overflow:visible">
      <path
         d="M 0,0 5,-5 -12.5,0 5,5 0,0 z"
         transform="matrix(-0.8,0,0,-0.8,-10,0)"
         id="path4062"
         style="fill-rule:evenodd;stroke:#000000;stroke-width:1pt" />
    </marker>
    <inkscape:path-effect
       effect="spiro"
       id="path-effect27201" />
    <marker
       refX="0"
       refY="0"
       orient="auto"
       id="Arrow1Mend-5"
       style="overflow:visible">
      <path
         d="M 0,0 5,-5 -12.5,0 5,5 0,0 z"
         transform="matrix(-0.4,0,0,-0.4,-4,0)"
         id="path4068-2"
         style="fill-rule:evenodd;stroke:#000000;stroke-width:1pt" />
    </marker>
    <inkscape:path-effect
       effect="spiro"
       id="path-effect27201-2" />
    <marker
       refX="0"
       refY="0"
       orient="auto"
       id="Arrow1Mend-0"
       style="overflow:visible">
      <path
         d="M 0,0 5,-5 -12.5,0 5,5 0,0 z"
         transform="matrix(-0.4,0,0,-0.4,-4,0)"
         id="path4068-8"
         style="fill-rule:evenodd;stroke:#000000;stroke-width:1pt" />
    </marker>
    <inkscape:path-effect
       effect="spiro"
       id="path-effect5555" />
    <marker
       refX="0"
       refY="0"
       orient="auto"
       id="Arrow1Mend-6"
       style="overflow:visible">
      <path
         d="M 0,0 5,-5 -12.5,0 5,5 0,0 z"
         transform="matrix(-0.4,0,0,-0.4,-4,0)"
         id="path4068-6"
         style="fill-rule:evenodd;stroke:#000000;stroke-width:1pt" />
    </marker>
    <inkscape:path-effect
       effect="spiro"
       id="path-effect5555-5" />
    <marker
       refX="0"
       refY="0"
       orient="auto"
       id="Arrow1Mend-6-4"
       style="overflow:visible">
      <path
         d="M 0,0 5,-5 -12.5,0 5,5 0,0 z"
         transform="matrix(-0.4,0,0,-0.4,-4,0)"
         id="path4068-6-8"
         style="fill-rule:evenodd;stroke:#000000;stroke-width:1pt" />
    </marker>
    <marker
       refX="0"
       refY="0"
       orient="auto"
       id="Arrow1Send-7"
       style="overflow:visible">
      <path
         d="M 0,0 5,-5 -12.5,0 5,5 0,0 z"
         transform="matrix(-0.2,0,0,-0.2,-1.2,0)"
         id="path4074-6"
         style="fill-rule:evenodd;stroke:#000000;stroke-width:1pt" />
    </marker>
    <inkscape:path-effect
       effect="spiro"
       id="path-effect31821-7" />
  </defs>
  <metadata
     id="metadata26436">
    <rdf:RDF>
      <cc:Work
         rdf:about="">
        <dc:format>image/svg+xml</dc:format>
        <dc:type
           rdf:resource="http://purl.org/dc/dcmitype/StillImage" />
        <dc:title></dc:title>
      </cc:Work>
    </rdf:RDF>
  </metadata>
  <g
     transform="translate(-59.199265,-81.59976)"
     id="layer1">
    <path
       d="m 112.26168,80.644155 a 29.041885,29.041885 0 1 1 -0.50801,-0.248491"
       transform="matrix(1.3025603,0,0,1.3025603,-20.936951,-8.1227084)"
       id="path27771"
       style="color:#000000;fill:none;stroke:#000000;stroke-width:2;stroke-linecap:butt;stroke-linejoin:miter;stroke-miterlimit:4;stroke-opacity:1;stroke-dasharray:none;stroke-dashoffset:0;marker:none;visibility:visible;display:inline;overflow:visible;enable-background:accumulate" />
    <path
       d="m 112.26168,80.644155 a 29.041885,29.041885 0 1 1 -0.50801,-0.248491"
       transform="matrix(1.3361781,0,0,1.3361781,140.01305,-10.696448)"
       id="path27771-7"
       style="color:#000000;fill:none;stroke:#000000;stroke-width:2;stroke-linecap:butt;stroke-linejoin:miter;stroke-miterlimit:4;stroke-opacity:1;stroke-dasharray:none;stroke-dashoffset:0;marker:none;visibility:visible;display:inline;overflow:visible;enable-background:accumulate" />
    <path
       d="m 112.26168,80.644155 a 29.041885,29.041885 0 1 1 -0.50801,-0.248491"
       transform="matrix(1.3866048,0,0,1.3866048,299.79985,-14.557058)"
       id="path27771-6"
       style="color:#000000;fill:none;stroke:#000000;stroke-width:2;stroke-linecap:butt;stroke-linejoin:miter;stroke-miterlimit:4;stroke-opacity:1;stroke-dasharray:none;stroke-dashoffset:0;marker:none;visibility:visible;display:inline;overflow:visible;enable-background:accumulate" />
    <path
       d="m 146.17541,130.97191 87.63692,0.53886"
       id="path27809"
       style="fill:none;stroke:#000000;stroke-width:2;stroke-linecap:butt;stroke-linejoin:miter;stroke-miterlimit:4;stroke-opacity:1;stroke-dasharray:none;marker-end:url(#Arrow1Mend-6)" />
    <path
       d="m 311.43759,132.10629 85.70233,0.78802"
       id="path28191"
       style="fill:none;stroke:#000000;stroke-width:2;stroke-linecap:butt;stroke-linejoin:miter;stroke-miterlimit:4;stroke-opacity:1;stroke-dasharray:none;marker-end:url(#Arrow1Mend-6)" />
    <path
       d="m 112.26168,80.644155 a 29.041885,29.041885 0 1 1 -0.50801,-0.248491"
       transform="matrix(1.352987,0,0,1.352987,465.40255,-11.983318)"
       id="path27771-6-5"
       style="color:#000000;fill:none;stroke:#000000;stroke-width:2;stroke-linecap:butt;stroke-linejoin:miter;stroke-miterlimit:4;stroke-opacity:1;stroke-dasharray:none;stroke-dashoffset:0;marker:none;visibility:visible;display:inline;overflow:visible;enable-background:accumulate" />
    <path
       d="m 477.69431,133.01391 82.6879,-0.51476"
       id="path28191-5"
       style="fill:none;stroke:#000000;stroke-width:2;stroke-linecap:butt;stroke-linejoin:miter;stroke-miterlimit:4;stroke-opacity:1;stroke-dasharray:none;marker-end:url(#Arrow1Mend-6);display:inline" />
    <g
       transform="matrix(0.38191722,0,0,0.38191722,-326.41845,-25.229726)"
       id="g28585">
      <g
         transform="matrix(1.0629921,0,0,-1.0629921,-186.02362,789.27165)"
         id="g28587"
         xml:space="preserve"
         style="font-style:normal;font-variant:normal;font-weight:normal;font-stretch:normal;letter-spacing:normal;word-spacing:normal;text-anchor:start;fill:none;stroke:#000000;stroke-linecap:butt;stroke-linejoin:miter;stroke-miterlimit:10.43299961;stroke-opacity:1;stroke-dasharray:none;stroke-dashoffset:0"><path
           d="m 1242.6,361.49 0,0.13 0,0.15 0.1,0.16 0,0.18 0.1,0.2 0,0.2 0.1,0.22 0.1,0.22 0,0.24 0.1,0.24 0.1,0.24 0.1,0.25 0.1,0.25 0.2,0.25 0.1,0.25 0.1,0.24 0.2,0.24 0.1,0.24 0.2,0.23 0.2,0.23 0.2,0.21 0.2,0.2 0.2,0.19 0.2,0.18 0.2,0.16 0.3,0.14 0.1,0.07 0.1,0.06 0.2,0.05 0.1,0.05 0.1,0.05 0.2,0.04 0.1,0.03 0.2,0.03 0.1,0.02 0.2,0.02 0.1,0.01 0.2,0 c 0.3,0 1.4,0 2.5,-0.64 -1.4,-0.25 -2.4,-1.5 -2.4,-2.68 0,-0.8 0.5,-1.75 1.9,-1.75 1.1,0 2.7,0.89 2.7,2.89 0,2.59 -3,3.28 -4.6,3.28 -2.9,0 -4.7,-2.64 -5.3,-3.78 -1.2,3.28 -3.9,3.78 -5.4,3.78 -5.1,0 -8,-6.42 -8,-7.67 0,-0.5 0.5,-0.5 0.6,-0.5 0.4,0 0.6,0.1 0.7,0.54 1.6,5.28 4.9,6.53 6.6,6.53 1,0 2.7,-0.43 2.7,-3.32 0,-1.55 -0.8,-4.9 -2.7,-11.86 -0.8,-3.1 -2.5,-5.19 -4.7,-5.19 -0.3,0 -1.4,0 -2.5,0.65 1.3,0.24 2.3,1.29 2.3,2.69 0,1.35 -1,1.74 -1.8,1.74 -1.5,0 -2.7,-1.3 -2.7,-2.89 0,-2.29 2.5,-3.29 4.7,-3.29 3.2,0 5,3.49 5.2,3.79 0.6,-1.85 2.4,-3.79 5.4,-3.79 5.1,0 7.9,6.43 7.9,7.68 0,0.5 -0.4,0.5 -0.6,0.5 -0.4,0 -0.5,-0.21 -0.6,-0.55 -1.6,-5.33 -5,-6.53 -6.6,-6.53 -2,0 -2.8,1.59 -2.8,3.3 0,1.09 0.3,2.18 0.9,4.37 z"
           id="path28589"
           style="fill:#000000;stroke-width:0" /></g>    </g>
    <g
       transform="translate(-1.0101525,3.5355339)"
       id="g29610">
      <g
         transform="matrix(0.19030408,0,0,0.19030408,52.228065,65.038151)"
         id="g29132">
        <g
           transform="matrix(1.0629921,0,0,-1.0629921,-186.02362,789.27165)"
           id="g29134"
           xml:space="preserve"
           style="font-style:normal;font-variant:normal;font-weight:normal;font-stretch:normal;letter-spacing:normal;word-spacing:normal;text-anchor:start;fill:none;stroke:#000000;stroke-linecap:butt;stroke-linejoin:miter;stroke-miterlimit:10.43299961;stroke-opacity:1;stroke-dasharray:none;stroke-dashoffset:0"><path
             d="m 1133.7,380.47 0,0.01 0,0 0,0.01 0,0.01 0,0.01 0,0.01 0,0.02 0,0.02 0,0.02 -0.1,0.02 0,0.02 0,0.02 0,0.03 0,0.02 0,0.02 0,0.03 0,0.02 0,0.03 -0.1,0.02 0,0.03 0,0.02 0,0.01 0,0.01 0,0.01 0,0.01 -0.1,0.01 0,0.01 0,0.01 0,0.01 0,0.01 0,0.01 -0.1,0.01 0,0 0,0.01 0,0.01 0,0 -0.1,0.01 0,0 0,0.01 0,0 -0.1,0 0,0.01 0,0 -0.1,0 0,0 c -1.1,0 -4.8,-0.41 -6.1,-0.5 -0.4,-0.05 -0.9,-0.09 -0.9,-1 0,-0.59 0.4,-0.59 1.2,-0.59 2.4,0 2.5,-0.35 2.5,-0.85 l -0.2,-1 -7.2,-28.7 c -0.2,-0.69 -0.2,-0.8 -0.2,-1.09 0,-1.15 1,-1.4 1.5,-1.4 0.7,0 1.5,0.6 1.8,1.3 l 0.9,3.78 1.1,4.49 c 0.3,1.09 0.6,2.18 0.9,3.34 0.1,0.3 0.5,1.94 0.5,2.24 0.2,0.45 1.7,3.25 3.4,4.59 1.1,0.8 2.7,1.73 4.8,1.73 2.1,0 2.7,-1.68 2.7,-3.48 0,-2.69 -1.9,-8.13 -3.1,-11.16 -0.4,-1.15 -0.7,-1.75 -0.7,-2.75 0,-2.33 1.8,-4.08 4.1,-4.08 4.7,0 6.6,7.27 6.6,7.68 0,0.5 -0.5,0.5 -0.6,0.5 -0.5,0 -0.5,-0.16 -0.8,-0.91 -0.7,-2.64 -2.3,-6.17 -5.1,-6.17 -0.8,0 -1.2,0.5 -1.2,1.64 0,1.25 0.5,2.45 0.9,3.55 0.8,2.14 3.1,8.06 3.1,10.95 0,3.23 -2,5.33 -5.8,5.33 -3.1,0 -5.5,-1.53 -7.3,-3.83 z"
             id="path29136"
             style="fill:#000000;stroke-width:0" /><path
             d="m 1159.7,389.12 0,0.04 0,0.04 0,0.05 0,0.04 0,0.03 0,0.04 0,0.04 0,0.03 0,0.04 0,0.03 0,0.03 0,0.03 0,0.03 0,0.03 0,0.03 0,0.02 0,0.03 0,0.02 0,0.05 0,0.04 -0.1,0.04 0,0.03 0,0.03 0,0.03 0,0.03 -0.1,0.02 0,0.02 0,0.02 -0.1,0.01 0,0.01 -0.1,0.02 0,0 0,0 0,0.01 -0.1,0 0,0.01 0,0 0,0 -0.1,0 0,0 0,0.01 -0.1,0 0,0 0,0 -0.1,0 0,0 -0.1,0 0,0 0,0 -0.1,0 0,0 c -2.3,-2.2 -5.4,-2.23 -6.9,-2.23 v -1.25 c 0.9,0 3.2,0 5.1,0.97 v -17.77 c 0,-1.16 0,-1.61 -3.5,-1.61 h -1.3 v -1.25 c 0.6,0.03 4.9,0.14 6.2,0.14 1.1,0 5.5,-0.11 6.2,-0.14 v 1.25 h -1.3 c -3.5,0 -3.5,0.45 -3.5,1.61 z"
             id="path29138"
             style="fill:#000000;stroke-width:0" /><path
             d="m 1152.3,336.27 0,-0.05 0,-0.04 -0.1,-0.05 0,-0.05 0,-0.05 0,-0.05 0,-0.05 0,-0.06 -0.1,-0.11 0,-0.11 0,-0.11 0,-0.11 0,-0.05 -0.1,-0.05 0,-0.05 0,-0.05 0,-0.05 0,-0.05 0,-0.04 0,-0.04 0,-0.04 0,-0.03 0,-0.03 0,-0.03 0,-0.03 0,-0.02 0,-0.01 0,0 0,-0.01 -0.1,-0.01 c 0,-0.76 0.7,-1.11 1.2,-1.11 0.7,0 1.2,0.46 1.4,0.77 0.2,0.31 0.4,1.42 0.6,2.16 0.2,0.65 0.6,2.26 0.8,3.14 0.2,0.76 0.4,1.53 0.6,2.32 0.3,1.44 0.4,1.71 1.4,3.15 1,1.39 2.7,3.2 5.3,3.2 2,0 2,-1.78 2,-2.44 0,-2.09 -1.5,-5.95 -2,-7.42 -0.4,-0.99 -0.6,-1.3 -0.6,-1.89 0,-1.84 1.6,-2.99 3.3,-2.99 3.5,0 5.1,4.8 5.1,5.33 0,0.46 -0.5,0.46 -0.6,0.46 -0.5,0 -0.5,-0.21 -0.7,-0.6 -0.8,-2.78 -2.3,-4.22 -3.6,-4.22 -0.8,0 -0.9,0.49 -0.9,1.22 0,0.8 0.1,1.25 0.8,2.83 0.4,1.08 1.8,4.77 1.8,6.72 0,3.39 -2.6,3.97 -4.5,3.97 -2.9,0 -4.8,-1.77 -5.9,-3.16 -0.2,2.39 -2.3,3.16 -3.7,3.16 -1.5,0 -2.3,-1.08 -2.8,-1.88 -0.7,-1.28 -1.2,-3.28 -1.2,-3.45 0,-0.45 0.5,-0.45 0.6,-0.45 0.5,0 0.5,0.11 0.7,1.04 0.6,2.07 1.2,3.77 2.6,3.77 0.9,0 1.1,-0.77 1.1,-1.7 0,-0.68 -0.3,-1.96 -0.5,-2.89 -0.3,-0.96 -0.6,-2.38 -0.8,-3.15 z"
             id="path29140"
             style="fill:#000000;stroke-width:0" /><path
             d="m 1223.2,362.74 0.1,0 0.2,0 0.1,0 0.1,0.01 0.1,0 0,0.01 0.1,0.01 0.1,0.01 0.1,0.01 0,0.01 0.1,0.02 0.1,0.02 0,0.02 0.1,0.03 0,0.02 0.1,0.03 0,0.04 0.1,0.04 0,0.04 0.1,0.04 0,0.05 0,0.03 0.1,0.03 0,0.03 0,0.03 0,0.03 0,0.03 0,0.03 0,0.04 0,0.03 0.1,0.04 0,0.04 0,0.04 0,0.04 0,0.04 0,0.05 0,0.04 c 0,1 -1,1 -1.7,1 h -29.8 c -0.7,0 -1.6,0 -1.6,-1 0,-0.98 0.9,-0.98 1.6,-0.98 z"
             id="path29142"
             style="fill:#000000;stroke-width:0" /><path
             d="m 1223.2,353.07 0.1,0 0.1,0 0.1,0 0.1,0 0.1,0.01 0.1,0 0.1,0.01 0,0.01 0.1,0.01 0.1,0.01 0,0.01 0.1,0.02 0.1,0.02 0,0.02 0.1,0.03 0,0.02 0.1,0.04 0,0.03 0.1,0.04 0,0.04 0.1,0.05 0,0.02 0,0.03 0,0.02 0.1,0.03 0,0.03 0,0.03 0,0.03 0,0.04 0,0.03 0,0.04 0,0.03 0.1,0.04 0,0.04 0,0.04 0,0.04 0,0.05 0,0.04 0,0.05 c 0,1 -1,1 -1.7,1 h -29.8 c -0.7,0 -1.6,0 -1.6,-1 0,-1 0.9,-1 1.6,-1 z"
             id="path29144"
             style="fill:#000000;stroke-width:0" /><path
             d="m 1267.4,365.02 0.1,0 0.1,0 0.1,0 0,0 0.1,0.01 0.1,0 0.1,0.01 0.1,0.01 0.1,0.01 0.1,0.01 0.1,0.02 0.1,0.02 0.1,0.02 0.1,0.03 0.1,0.04 0.1,0.03 0.1,0.05 0.1,0.04 0.1,0.06 0.1,0.06 0.1,0.06 0.1,0.07 0,0.04 0,0.04 0.1,0.04 0,0.05 0,0.04 0.1,0.05 0,0.05 0,0.05 0,0.06 0.1,0.05 0,0.06 0,0.06 0,0.06 0,0.07 0.1,0.06 0,0.07 0,0.07 0,0.08 0,0.07 0,0.08 c 0,1.19 -1.1,1.19 -2,1.19 h -11.3 c -7.5,0 -13.1,-8.22 -13.1,-14.14 0,-4.39 3,-7.88 7.5,-7.88 l 0.1,1.1 c -2.5,0 -4.5,1.8 -4.5,5.37 0,1.5 0.6,5.6 2.4,8.53 2.1,3.44 5,4.13 6.7,4.13 4.2,0 4.6,-3.28 4.6,-4.83 0,-2.34 -1,-6.42 -2.7,-8.97 -1.9,-2.93 -4.6,-4.23 -6.5,-4.23 h 0 l -0.1,-1.1 c 5.9,0 12.5,6.04 12.5,13.71 0,0.84 0,3.23 -1.5,5.42 z"
             id="path29146"
             style="fill:#000000;stroke-width:0" /><path
             d="m 1288.4,334.49 0,0.02 0,0.03 0,0.01 0,0.02 0,0.01 -0.1,0.02 0,0.02 0,0.01 0,0.02 0,0.02 0,0.03 0,0.02 0,0.02 0,0.03 -0.1,0.03 0,0.03 0,0.04 0,0.03 -0.1,0.02 0,0.02 0,0.02 0,0.02 0,0.02 -0.1,0.03 0,0.02 0,0.02 0,0.03 0,0.03 -0.1,0.02 0,0.03 0,0.03 0,0.03 -0.1,0.03 0,0.03 0,0.03 -0.1,0.03 0,0.04 0,0.03 -0.1,0.04 0,0.04 0,0.03 -0.1,0.04 c -6.2,6.28 -7.8,15.69 -7.8,23.31 0,8.68 1.9,17.35 8,23.57 0.7,0.61 0.7,0.7 0.7,0.86 0,0.34 -0.2,0.48 -0.5,0.48 -0.5,0 -5,-3.37 -8,-9.7 -2.5,-5.49 -3.1,-11.02 -3.1,-15.21 0,-3.89 0.6,-9.9 3.3,-15.54 3,-6.13 7.3,-9.36 7.8,-9.36 0.3,0 0.5,0.14 0.5,0.5 z"
             id="path29148"
             style="fill:#000000;stroke-width:0" /><path
             d="m 1297.8,350.58 0.3,0.27 0.2,0.26 0.2,0.24 0.3,0.24 0.2,0.23 0.2,0.23 0.2,0.21 0.2,0.21 0.2,0.2 0.2,0.2 0.2,0.19 0.2,0.18 0.2,0.18 0.2,0.17 0.3,0.33 0.4,0.32 0.3,0.3 0.3,0.3 0.3,0.28 0.7,0.56 0.3,0.29 0.4,0.28 c 0,0.05 3,2.69 4.8,4.49 4.8,4.64 5.9,7.03 5.9,7.22 0,0.5 -0.5,0.5 -0.6,0.5 -0.3,0 -0.5,-0.1 -0.7,-0.55 -1.5,-2.39 -2.6,-3.19 -3.8,-3.19 -1.2,0 -1.8,0.75 -2.5,1.6 -1,1.15 -1.8,2.14 -3.5,2.14 -3.7,0 -6,-4.63 -6,-5.67 0,-0.25 0.2,-0.55 0.6,-0.55 0.5,0 0.6,0.25 0.7,0.55 0.9,2.29 3.8,2.34 4.2,2.34 1,0 2,-0.36 3.1,-0.75 2,-0.75 2.6,-0.75 3.9,-0.75 -1.8,-2.14 -6,-5.74 -6.9,-6.53 l -4.5,-4.17 c -3.4,-3.35 -5.2,-6.19 -5.2,-6.54 0,-0.5 0.5,-0.5 0.6,-0.5 0.4,0 0.5,0.1 0.8,0.65 1.2,1.75 2.7,3.09 4.3,3.09 1.1,0 1.6,-0.45 2.8,-1.89 0.9,-1.05 1.8,-1.85 3.2,-1.85 5,0 7.9,6.33 7.9,7.68 0,0.25 -0.2,0.5 -0.6,0.5 -0.5,0 -0.6,-0.3 -0.7,-0.66 -1.2,-3.23 -4.4,-4.17 -6,-4.17 -1,0 -1.9,0.3 -3,0.64 -1.6,0.64 -2.4,0.84 -3.4,0.84 -0.1,0 -0.9,0 -1.4,-0.14 z"
             id="path29150"
             style="fill:#000000;stroke-width:0" /><path
             d="m 1328.2,389.12 0,0.04 0,0.04 0,0.05 0,0.04 0,0.03 0,0.04 0,0.04 0,0.03 0,0.04 0,0.03 0,0.03 0,0.03 0,0.03 0,0.03 0,0.03 0,0.02 0,0.03 0,0.02 -0.1,0.05 0,0.04 0,0.04 0,0.03 0,0.03 0,0.03 -0.1,0.03 0,0.02 0,0.02 -0.1,0.02 0,0.01 0,0.01 -0.1,0.02 0,0 0,0 -0.1,0.01 0,0 0,0.01 0,0 -0.1,0 0,0 0,0 -0.1,0.01 0,0 0,0 -0.1,0 0,0 0,0 -0.1,0 0,0 -0.1,0 0,0 -0.1,0 c -2.2,-2.2 -5.3,-2.23 -6.8,-2.23 v -1.25 c 0.9,0 3.2,0 5.1,0.97 v -17.77 c 0,-1.16 0,-1.61 -3.5,-1.61 h -1.3 v -1.25 c 0.6,0.03 4.9,0.14 6.2,0.14 1,0 5.4,-0.11 6.2,-0.14 v 1.25 h -1.3 c -3.5,0 -3.5,0.45 -3.5,1.61 z"
             id="path29152"
             style="fill:#000000;stroke-width:0" /><path
             d="m 1318.6,336.27 0,-0.05 0,-0.04 0,-0.05 0,-0.05 -0.1,-0.05 0,-0.05 0,-0.05 0,-0.06 0,-0.11 -0.1,-0.11 0,-0.11 0,-0.11 0,-0.05 0,-0.05 0,-0.05 -0.1,-0.05 0,-0.05 0,-0.05 0,-0.04 0,-0.04 0,-0.04 0,-0.03 0,-0.03 0,-0.03 0,-0.03 0,-0.02 0,-0.01 0,0 0,-0.01 0,-0.01 c 0,-0.76 0.6,-1.11 1.1,-1.11 0.7,0 1.2,0.46 1.4,0.77 0.2,0.31 0.5,1.42 0.6,2.16 0.2,0.65 0.6,2.26 0.8,3.14 0.2,0.76 0.4,1.53 0.6,2.32 0.4,1.44 0.4,1.71 1.4,3.15 1,1.39 2.7,3.2 5.3,3.2 2,0 2,-1.78 2,-2.44 0,-2.09 -1.4,-5.95 -2,-7.42 -0.4,-0.99 -0.6,-1.3 -0.6,-1.89 0,-1.84 1.6,-2.99 3.4,-2.99 3.5,0 5,4.8 5,5.33 0,0.46 -0.5,0.46 -0.6,0.46 -0.5,0 -0.5,-0.21 -0.6,-0.6 -0.8,-2.78 -2.3,-4.22 -3.7,-4.22 -0.8,0 -0.9,0.49 -0.9,1.22 0,0.8 0.2,1.25 0.8,2.83 0.4,1.08 1.9,4.77 1.9,6.72 0,3.39 -2.7,3.97 -4.6,3.97 -2.9,0 -4.8,-1.77 -5.9,-3.16 -0.2,2.39 -2.3,3.16 -3.7,3.16 -1.5,0 -2.3,-1.08 -2.8,-1.88 -0.7,-1.28 -1.2,-3.28 -1.2,-3.45 0,-0.45 0.5,-0.45 0.6,-0.45 0.5,0 0.5,0.11 0.8,1.04 0.5,2.07 1.2,3.77 2.5,3.77 0.9,0 1.2,-0.77 1.2,-1.7 0,-0.68 -0.4,-1.96 -0.6,-2.89 -0.3,-0.96 -0.6,-2.38 -0.8,-3.15 z"
             id="path29154"
             style="fill:#000000;stroke-width:0" /><path
             d="m 1355.9,358.89 0,0.38 0,0.38 0,0.39 -0.1,0.41 0,0.84 -0.1,0.88 0,0.92 -0.1,0.95 -0.2,0.98 -0.1,1 -0.2,1.02 -0.3,1.04 -0.2,1.05 -0.3,1.06 -0.4,1.06 -0.4,1.07 -0.2,0.53 -0.2,0.53 -0.3,0.53 -0.2,0.53 c -3,6.13 -7.3,9.36 -7.8,9.36 -0.3,0 -0.5,-0.19 -0.5,-0.48 0,-0.16 0,-0.25 1,-1.16 4.9,-4.92 7.7,-12.84 7.7,-23.27 0,-8.51 -1.8,-17.28 -8,-23.56 -0.7,-0.59 -0.7,-0.7 -0.7,-0.84 0,-0.3 0.2,-0.5 0.5,-0.5 0.5,0 5,3.39 8,9.72 2.5,5.47 3.1,11 3.1,15.18 z"
             id="path29156"
             style="fill:#000000;stroke-width:0" /></g>      </g>
      <g
         transform="matrix(0.19030408,0,0,0.19030408,54.129606,39.483015)"
         id="g29302">
        <g
           transform="matrix(1.0629921,0,0,-1.0629921,-186.02362,789.27165)"
           id="g29304"
           xml:space="preserve"
           style="font-style:normal;font-variant:normal;font-weight:normal;font-stretch:normal;letter-spacing:normal;word-spacing:normal;text-anchor:start;fill:none;stroke:#000000;stroke-linecap:butt;stroke-linejoin:miter;stroke-miterlimit:10.43299961;stroke-opacity:1;stroke-dasharray:none;stroke-dashoffset:0"><path
             d="m 1117.2,350.58 0.3,0.27 0.2,0.26 0.3,0.24 0.2,0.24 0.2,0.23 0.2,0.23 0.2,0.21 0.2,0.21 0.2,0.2 0.2,0.2 0.2,0.19 0.2,0.18 0.2,0.18 0.2,0.17 0.3,0.33 0.4,0.32 0.3,0.3 0.3,0.3 0.4,0.28 0.6,0.56 0.3,0.29 0.4,0.28 c 0,0.05 3,2.69 4.8,4.49 4.8,4.64 5.9,7.03 5.9,7.22 0,0.5 -0.5,0.5 -0.6,0.5 -0.3,0 -0.5,-0.1 -0.7,-0.55 -1.5,-2.39 -2.6,-3.19 -3.8,-3.19 -1.2,0 -1.8,0.75 -2.5,1.6 -1,1.15 -1.8,2.14 -3.5,2.14 -3.7,0 -6,-4.63 -6,-5.67 0,-0.25 0.2,-0.55 0.6,-0.55 0.5,0 0.6,0.25 0.7,0.55 0.9,2.29 3.8,2.34 4.2,2.34 1,0 2,-0.36 3.1,-0.75 2,-0.75 2.6,-0.75 3.9,-0.75 -1.8,-2.14 -6,-5.74 -6.9,-6.53 l -4.5,-4.17 c -3.4,-3.35 -5.2,-6.19 -5.2,-6.54 0,-0.5 0.5,-0.5 0.6,-0.5 0.4,0 0.5,0.1 0.8,0.65 1.2,1.75 2.7,3.09 4.3,3.09 1.1,0 1.6,-0.45 2.9,-1.89 0.8,-1.05 1.7,-1.85 3.1,-1.85 5,0 7.9,6.33 7.9,7.68 0,0.25 -0.2,0.5 -0.6,0.5 -0.5,0 -0.6,-0.3 -0.7,-0.66 -1.2,-3.23 -4.3,-4.17 -6,-4.17 -1,0 -1.9,0.3 -2.9,0.64 -1.7,0.64 -2.5,0.84 -3.5,0.84 -0.1,0 -0.9,0 -1.4,-0.14 z"
             id="path29306"
             style="fill:#000000;stroke-width:0" /><path
             d="m 1147.6,389.12 0,0.04 0,0.04 0,0.05 0,0.04 0,0.03 0,0.04 0,0.04 0,0.03 0,0.04 0,0.03 0,0.03 0,0.03 0,0.03 0,0.03 0,0.03 0,0.02 0,0.03 0,0.02 0,0.03 -0.1,0.02 0,0.04 0,0.04 0,0.03 0,0.03 0,0.03 -0.1,0.03 0,0.02 0,0.02 -0.1,0.02 0,0.01 0,0.01 -0.1,0.02 0,0 0,0 0,0.01 -0.1,0 0,0.01 0,0 -0.1,0 0,0 0,0 -0.1,0.01 0,0 0,0 -0.1,0 0,0 0,0 -0.1,0 0,0 -0.1,0 0,0 0,0 c -2.3,-2.2 -5.4,-2.23 -6.9,-2.23 v -1.25 c 0.9,0 3.2,0 5.1,0.97 v -17.77 c 0,-1.16 0,-1.61 -3.5,-1.61 h -1.3 v -1.25 c 0.6,0.03 4.9,0.14 6.2,0.14 1,0 5.4,-0.11 6.2,-0.14 v 1.25 h -1.3 c -3.5,0 -3.5,0.45 -3.5,1.61 z"
             id="path29308"
             style="fill:#000000;stroke-width:0" /><path
             d="m 1138,336.27 0,-0.05 0,-0.04 0,-0.05 0,-0.05 -0.1,-0.05 0,-0.05 0,-0.05 0,-0.06 0,-0.11 -0.1,-0.11 0,-0.11 0,-0.11 0,-0.05 0,-0.05 0,-0.05 -0.1,-0.05 0,-0.05 0,-0.05 0,-0.04 0,-0.04 0,-0.04 0,-0.03 0,-0.03 0,-0.03 0,-0.03 0,-0.02 0,-0.01 0,0 0,-0.01 0,-0.01 c 0,-0.76 0.6,-1.11 1.2,-1.11 0.6,0 1.1,0.46 1.3,0.77 0.2,0.31 0.5,1.42 0.6,2.16 0.2,0.65 0.6,2.26 0.8,3.14 0.2,0.76 0.4,1.53 0.6,2.32 0.4,1.44 0.5,1.71 1.5,3.15 0.9,1.39 2.6,3.2 5.2,3.2 2,0 2,-1.78 2,-2.44 0,-2.09 -1.5,-5.95 -2,-7.42 -0.4,-0.99 -0.5,-1.3 -0.5,-1.89 0,-1.84 1.5,-2.99 3.3,-2.99 3.5,0 5,4.8 5,5.33 0,0.46 -0.5,0.46 -0.6,0.46 -0.5,0 -0.5,-0.21 -0.6,-0.6 -0.8,-2.78 -2.3,-4.22 -3.7,-4.22 -0.8,0 -0.9,0.49 -0.9,1.22 0,0.8 0.2,1.25 0.8,2.83 0.4,1.08 1.9,4.77 1.9,6.72 0,3.39 -2.7,3.97 -4.6,3.97 -2.9,0 -4.8,-1.77 -5.9,-3.16 -0.2,2.39 -2.3,3.16 -3.7,3.16 -1.5,0 -2.3,-1.08 -2.7,-1.88 -0.8,-1.28 -1.3,-3.28 -1.3,-3.45 0,-0.45 0.5,-0.45 0.6,-0.45 0.5,0 0.5,0.11 0.8,1.04 0.5,2.07 1.1,3.77 2.5,3.77 0.9,0 1.1,-0.77 1.1,-1.7 0,-0.68 -0.3,-1.96 -0.5,-2.89 -0.2,-0.96 -0.6,-2.38 -0.8,-3.15 z"
             id="path29310"
             style="fill:#000000;stroke-width:0" /><path
             d="m 1208.9,362.74 0.2,0 0.1,0 0.1,0 0.1,0.01 0.1,0 0.1,0.01 0,0.01 0.1,0.01 0.1,0.01 0,0.01 0.1,0.02 0.1,0.02 0,0.02 0.1,0.03 0.1,0.02 0,0.03 0.1,0.04 0,0.04 0.1,0.04 0,0.04 0,0.05 0.1,0.03 0,0.03 0,0.03 0,0.03 0,0.03 0,0.03 0,0.03 0.1,0.04 0,0.03 0,0.04 0,0.04 0,0.04 0,0.04 0,0.04 0,0.05 0,0.04 c 0,1 -0.9,1 -1.6,1 h -29.9 c -0.7,0 -1.6,0 -1.6,-1 0,-0.98 0.9,-0.98 1.7,-0.98 z"
             id="path29312"
             style="fill:#000000;stroke-width:0" /><path
             d="m 1209,353.07 0,0 0.1,0 0.1,0 0.2,0 0,0.01 0.1,0 0.1,0.01 0,0.01 0.1,0.01 0.1,0.01 0,0.01 0.1,0.02 0.1,0.02 0,0.02 0.1,0.03 0.1,0.02 0,0.04 0.1,0.03 0,0.04 0.1,0.04 0,0.05 0,0.02 0,0.03 0.1,0.02 0,0.03 0,0.03 0,0.03 0,0.03 0,0.04 0,0.03 0.1,0.04 0,0.03 0,0.04 0,0.04 0,0.04 0,0.04 0,0.05 0,0.04 0,0.05 c 0,1 -0.9,1 -1.7,1 h -29.7 c -0.8,0 -1.7,0 -1.7,-1 0,-1 0.9,-1 1.6,-1 z"
             id="path29314"
             style="fill:#000000;stroke-width:0" /><path
             d="m 1252,362.93 0,0.01 0,0.02 0,0.02 0,0.01 0,0.02 0,0.02 0,0.02 0,0.02 -0.1,0.02 0,0.02 0,0.02 0,0.01 0,0.02 0,0.02 0,0.02 0,0.02 0,0.01 0,0.02 -0.1,0.02 0,0.01 0,0.02 0,0.01 0,0.01 -0.1,0.01 0,0.01 0,0.01 0,0.01 0,0 0,0 -0.1,0.01 0,0 0,0 0,0 0,0.01 0,0 0,0 -0.1,0 0,0 c -0.2,0 -0.2,-0.05 -0.7,-0.5 l -1.7,-1.99 c -1.3,1.86 -3.5,2.49 -5.6,2.49 -4.9,0 -9.3,-3.99 -9.3,-7.99 0,-0.51 0.1,-1.92 1.2,-3.2 1.1,-1.39 2.4,-1.7 4.8,-2.26 0.7,-0.18 2.4,-0.57 3,-0.71 1.1,-0.28 3.2,-1.04 3.2,-3.65 0,-2.82 -3,-6.13 -6.9,-6.13 -3.1,0 -6.8,1.08 -6.8,4.94 0,0.36 0.1,1.12 0.2,1.75 0.1,0.14 0.1,0.17 0.1,0.2 0,0.46 -0.5,0.46 -0.6,0.46 -0.5,0 -0.5,-0.07 -0.7,-0.69 l -1.7,-6.97 c -0.1,-0.14 -0.2,-0.36 -0.2,-0.53 0,-0.21 0.2,-0.42 0.5,-0.42 0.3,0 0.3,0.04 0.7,0.5 0.4,0.4 1.3,1.53 1.7,1.95 1.9,-2.03 4.6,-2.45 6.7,-2.45 5.2,0 9.5,4.53 9.5,8.64 0,1.54 -0.7,2.93 -1.4,3.73 -1.2,1.25 -1.8,1.39 -6.3,2.44 -0.7,0.17 -1.8,0.45 -2.1,0.56 -0.9,0.31 -2.4,1.19 -2.4,3.17 0,2.75 3.1,5.53 6.7,5.53 3.8,0 5.6,-2.12 5.6,-5.43 0,-0.46 -0.1,-1.25 -0.1,-1.57 0,-0.48 0.4,-0.48 0.6,-0.48 0.5,0 0.5,0.17 0.7,0.77 z"
             id="path29316"
             style="fill:#000000;stroke-width:0" /><path
             d="m 1279.2,363.33 0,0.11 0,0.11 0.1,0.11 0,0.11 0,0.12 0,0.12 0.1,0.25 0.1,0.25 0,0.25 0.1,0.25 0,0.24 0.1,0.12 0,0.11 0,0.11 0.1,0.11 0,0.11 0,0.1 0,0.09 0,0.09 0.1,0.08 0,0.08 0,0.07 0,0.07 0,0.05 0,0.05 0,0.04 0,0.04 c 0,0.9 -0.7,1.34 -1.4,1.34 -0.6,0 -1.5,-0.39 -1.9,-1.39 -0.1,-0.34 -2.5,-9.86 -2.8,-11.16 -0.4,-1.5 -0.5,-2.39 -0.5,-3.29 0,-0.55 0,-0.64 0.1,-0.89 -1.2,-2.64 -2.6,-4.19 -4.6,-4.19 -4,0 -4,3.69 -4,4.53 0,1.59 0.3,3.55 2.6,9.67 0.6,1.49 0.9,2.19 0.9,3.19 0,2.23 -1.7,4.08 -4.1,4.08 -4.8,0 -6.6,-7.22 -6.6,-7.67 0,-0.5 0.5,-0.5 0.6,-0.5 0.5,0 0.6,0.1 0.8,0.9 1.3,4.63 3.3,6.17 5,6.17 0.5,0 1.3,-0.04 1.3,-1.64 0,-1.25 -0.6,-2.64 -0.9,-3.48 -2.2,-5.88 -2.8,-8.17 -2.8,-10.06 0,-4.54 3.3,-6.29 7.1,-6.29 0.8,0 3.1,0 5.1,3.49 1.3,-3.19 4.8,-3.49 6.3,-3.49 3.7,0 5.9,3.15 7.2,6.13 1.7,3.89 3.3,10.56 3.3,12.95 0,2.75 -1.4,3.49 -2.2,3.49 -1.3,0 -2.5,-1.3 -2.5,-2.39 0,-0.64 0.3,-0.94 0.7,-1.35 0.6,-0.54 1.8,-1.84 1.8,-4.23 0,-1.69 -1.4,-6.58 -2.7,-9.11 -1.3,-2.64 -3,-4.39 -5.5,-4.39 -2.3,0 -3.7,1.5 -3.7,4.33 0,1.4 0.4,2.95 0.6,3.64 z"
             id="path29318"
             style="fill:#000000;stroke-width:0" /><path
             d="m 1303.5,361.04 0,0.04 0,0.04 0,0.04 0,0.04 0,0.04 0,0.04 0,0.04 0,0.03 0,0.03 0,0.04 0,0.03 0,0.03 0,0.03 0,0.03 -0.1,0.02 0,0.03 0,0.03 0,0.02 0,0.02 0,0.03 0,0.04 0,0.04 0,0.03 0,0.03 -0.1,0.03 0,0.02 0,0.03 0,0.02 -0.1,0.01 0,0.02 -0.1,0.01 0,0.01 0,0.01 0,0 -0.1,0.01 0,0 0,0 0,0.01 -0.1,0 0,0 0,0 -0.1,0 0,0.01 0,0 -0.1,0 0,0 -0.1,0 0,0 0,0 -0.1,0 0,0 -0.1,0 c -2.2,-2.2 -5.4,-2.23 -6.8,-2.23 v -1.25 c 0.8,0 3.1,0 5,0.96 v -17.76 c 0,-1.16 0,-1.61 -3.4,-1.61 h -1.4 v -1.25 c 0.7,0.03 5,0.14 6.3,0.14 1,0 5.4,-0.11 6.2,-0.14 v 1.25 h -1.3 c -3.5,0 -3.5,0.45 -3.5,1.61 z"
             id="path29320"
             style="fill:#000000;stroke-width:0" /><path
             d="m 1330.8,361.49 0,0.13 0,0.15 0.1,0.16 0,0.18 0.1,0.2 0,0.2 0.1,0.22 0.1,0.22 0,0.24 0.1,0.24 0.1,0.24 0.1,0.25 0.1,0.25 0.2,0.25 0.1,0.25 0.1,0.24 0.2,0.24 0.1,0.24 0.2,0.23 0.2,0.23 0.2,0.21 0.2,0.2 0.2,0.19 0.2,0.18 0.2,0.16 0.3,0.14 0.1,0.07 0.1,0.06 0.2,0.05 0.1,0.05 0.1,0.05 0.2,0.04 0.1,0.03 0.2,0.03 0.1,0.02 0.2,0.02 0.1,0.01 0.2,0 c 0.2,0 1.4,0 2.5,-0.64 -1.4,-0.25 -2.4,-1.5 -2.4,-2.68 0,-0.8 0.5,-1.75 1.9,-1.75 1.1,0 2.7,0.89 2.7,2.89 0,2.59 -3,3.28 -4.6,3.28 -2.9,0 -4.7,-2.64 -5.3,-3.78 -1.2,3.28 -3.9,3.78 -5.4,3.78 -5.2,0 -8,-6.42 -8,-7.67 0,-0.5 0.5,-0.5 0.6,-0.5 0.4,0 0.6,0.1 0.7,0.54 1.6,5.28 4.9,6.53 6.6,6.53 1,0 2.7,-0.43 2.7,-3.32 0,-1.55 -0.8,-4.9 -2.7,-11.86 -0.8,-3.1 -2.5,-5.19 -4.7,-5.19 -0.3,0 -1.4,0 -2.5,0.65 1.3,0.24 2.4,1.29 2.4,2.69 0,1.35 -1.1,1.74 -1.9,1.74 -1.5,0 -2.7,-1.3 -2.7,-2.89 0,-2.29 2.5,-3.29 4.6,-3.29 3.3,0 5.1,3.49 5.3,3.79 0.6,-1.85 2.4,-3.79 5.4,-3.79 5.1,0 7.9,6.43 7.9,7.68 0,0.5 -0.4,0.5 -0.6,0.5 -0.4,0 -0.5,-0.21 -0.6,-0.55 -1.7,-5.33 -5,-6.53 -6.6,-6.53 -2,0 -2.8,1.59 -2.8,3.3 0,1.09 0.3,2.18 0.9,4.37 z"
             id="path29322"
             style="fill:#000000;stroke-width:0" /><path
             d="m 1346.8,341.07 0,-0.05 0,-0.04 0,-0.05 0,-0.05 -0.1,-0.05 0,-0.05 0,-0.05 0,-0.06 0,-0.11 -0.1,-0.11 0,-0.11 0,-0.11 0,-0.05 0,-0.05 -0.1,-0.05 0,-0.05 0,-0.05 0,-0.05 0,-0.04 0,-0.04 0,-0.04 0,-0.03 0,-0.03 0,-0.03 0,-0.03 0,-0.02 0,0 0,-0.01 0,-0.01 0,-0.01 c 0,-0.76 0.6,-1.1 1.2,-1.1 0.6,0 1.1,0.45 1.3,0.76 0.2,0.31 0.5,1.42 0.6,2.16 0.2,0.65 0.6,2.26 0.8,3.14 0.2,0.76 0.4,1.53 0.6,2.33 0.4,1.43 0.4,1.7 1.4,3.14 1,1.39 2.7,3.2 5.3,3.2 2,0 2,-1.78 2,-2.44 0,-2.09 -1.5,-5.95 -2,-7.42 -0.4,-0.98 -0.5,-1.3 -0.5,-1.89 0,-1.84 1.5,-2.98 3.3,-2.98 3.4,0 5,4.79 5,5.32 0,0.46 -0.5,0.46 -0.6,0.46 -0.5,0 -0.5,-0.21 -0.6,-0.6 -0.8,-2.78 -2.3,-4.22 -3.7,-4.22 -0.8,0 -0.9,0.49 -0.9,1.22 0,0.8 0.2,1.25 0.8,2.83 0.4,1.08 1.9,4.77 1.9,6.72 0,3.39 -2.7,3.97 -4.6,3.97 -2.9,0 -4.8,-1.77 -5.9,-3.16 -0.2,2.39 -2.3,3.16 -3.7,3.16 -1.5,0 -2.3,-1.08 -2.8,-1.88 -0.7,-1.28 -1.2,-3.28 -1.2,-3.45 0,-0.45 0.5,-0.45 0.6,-0.45 0.5,0 0.5,0.11 0.8,1.04 0.5,2.07 1.2,3.77 2.5,3.77 0.9,0 1.1,-0.77 1.1,-1.7 0,-0.68 -0.3,-1.96 -0.5,-2.89 -0.3,-0.96 -0.6,-2.38 -0.8,-3.14 z"
             id="path29324"
             style="fill:#000000;stroke-width:0" /></g>      </g>
      <g
         transform="matrix(0.19030408,0,0,0.19030408,65.82121,51.444992)"
         id="g29494">
        <g
           transform="matrix(1.0629921,0,0,-1.0629921,-186.02362,789.27165)"
           id="g29496"
           xml:space="preserve"
           style="font-style:normal;font-variant:normal;font-weight:normal;font-stretch:normal;letter-spacing:normal;word-spacing:normal;text-anchor:start;fill:none;stroke:#000000;stroke-linecap:butt;stroke-linejoin:miter;stroke-miterlimit:10.43299961;stroke-opacity:1;stroke-dasharray:none;stroke-dashoffset:0"><path
             d="m 1143,357.89 h 13.9 c 0.7,0 1.6,0 1.6,1 0,1 -0.9,1 -1.6,1 H 1143 v 13.96 c 0,0.69 0,1.64 -1,1.64 -1,0 -1,-0.95 -1,-1.64 v -13.96 h -14 c -0.7,0 -1.6,0 -1.6,-1 0,-1 0.9,-1 1.6,-1 h 14 v -13.93 c 0,-0.71 0,-1.66 1,-1.66 1,0 1,0.95 1,1.66 z"
             id="path29498"
             style="fill:#000000;stroke-width:0" /><path
             d="m 1178.3,359.96 0,0.04 0,0.05 0,0.04 0,0.05 0.1,0.04 0,0.04 0,0.04 0,0.04 0,0.07 0,0.07 0,0.06 0.1,0.06 0,0.06 0,0.05 0,0.05 0,0.04 0.1,0.04 0,0.04 0,0.04 0,0.03 0.1,0.03 0,0.02 0,0.03 0.1,0.02 0,0.02 0,0.02 0.1,0.01 0,0.02 0.1,0.01 0,0.01 0.1,0.01 0,0.01 0.1,0.01 0,0 0.1,0.01 0.1,0 c 0.2,0.04 1.4,0.04 2.1,0.04 2.1,0 3,0 3.9,-0.29 1.5,-0.48 1.6,-1.5 1.6,-2.75 0,-0.54 0,-1 -0.2,-2.81 l -0.1,-0.39 c 0,-0.34 0.2,-0.51 0.6,-0.51 0.5,0 0.6,0.31 0.6,0.86 l 1,6.65 c 0,0.5 -0.4,0.5 -1.1,0.5 h -21.4 c -0.8,0 -0.9,0 -1.2,-0.73 l -2.2,-6.17 c 0,-0.15 -0.1,-0.46 -0.1,-0.63 0,-0.14 0,-0.48 0.5,-0.48 0.5,0 0.6,0.17 0.8,0.82 2,5.58 3.2,5.93 8.5,5.93 h 1.4 c 1.1,0 1.1,-0.04 1.1,-0.35 0,-0.03 0,-0.2 -0.1,-0.73 l -4.7,-18.33 c -0.3,-1.28 -0.4,-1.64 -4,-1.64 -1.3,0 -1.6,0 -1.6,-0.77 0,-0.09 0.1,-0.48 0.6,-0.48 1,0 2,0.11 3,0.11 1,0 2,0.03 3,0.03 1,0 2.2,0 3.1,-0.03 1,-0.05 2,-0.11 2.9,-0.11 0.3,0 0.9,0 0.9,0.76 0,0.49 -0.4,0.49 -1.5,0.49 -0.6,0 -1.3,0.05 -2,0.08 -1.2,0.09 -1.2,0.23 -1.2,0.65 0,0.25 0,0.32 0.1,0.8 z"
             id="path29500"
             style="fill:#000000;stroke-width:0" /><path
             d="m 1215.8,363.33 0,0.11 0.1,0.11 0,0.11 0,0.11 0.1,0.12 0,0.12 0,0.25 0.1,0.25 0.1,0.25 0,0.25 0.1,0.24 0,0.12 0,0.11 0.1,0.11 0,0.11 0,0.11 0,0.1 0.1,0.09 0,0.09 0,0.08 0,0.08 0,0.07 0,0.07 0.1,0.05 0,0.05 0,0.04 0,0.04 c 0,0.9 -0.7,1.34 -1.5,1.34 -0.6,0 -1.5,-0.39 -1.8,-1.39 -0.2,-0.34 -2.5,-9.86 -2.9,-11.16 -0.3,-1.5 -0.4,-2.39 -0.4,-3.29 0,-0.55 0,-0.64 0,-0.89 -1.1,-2.64 -2.6,-4.19 -4.5,-4.19 -4,0 -4,3.69 -4,4.53 0,1.59 0.2,3.55 2.6,9.67 0.5,1.49 0.8,2.19 0.8,3.19 0,2.23 -1.6,4.08 -4.1,4.08 -4.7,0 -6.6,-7.22 -6.6,-7.67 0,-0.5 0.5,-0.5 0.6,-0.5 0.5,0 0.6,0.1 0.8,0.9 1.4,4.63 3.3,6.17 5.1,6.17 0.4,0 1.2,-0.04 1.2,-1.64 0,-1.25 -0.5,-2.64 -0.9,-3.48 -2.2,-5.88 -2.8,-8.17 -2.8,-10.06 0,-4.54 3.4,-6.29 7.1,-6.29 0.9,0 3.2,0 5.2,3.49 1.3,-3.19 4.7,-3.49 6.2,-3.49 3.8,0 5.9,3.15 7.2,6.13 1.7,3.89 3.3,10.56 3.3,12.95 0,2.75 -1.3,3.49 -2.2,3.49 -1.2,0 -2.4,-1.3 -2.4,-2.39 0,-0.64 0.2,-0.94 0.7,-1.35 0.5,-0.54 1.8,-1.84 1.8,-4.23 0,-1.69 -1.5,-6.58 -2.8,-9.11 -1.2,-2.64 -3,-4.39 -5.4,-4.39 -2.4,0 -3.7,1.5 -3.7,4.33 0,1.4 0.3,2.95 0.5,3.64 z"
             id="path29502"
             style="fill:#000000;stroke-width:0" /><path
             d="m 1240.1,361.04 0,0.04 0,0.04 0,0.04 0,0.04 0,0.04 0,0.04 0,0.04 0,0.03 0,0.03 0,0.04 0,0.03 0,0.03 0,0.03 0,0.03 0,0.02 0,0.03 0,0.03 0,0.02 0,0.02 0,0.03 0,0.04 -0.1,0.04 0,0.03 0,0.03 0,0.03 0,0.02 -0.1,0.03 0,0.02 0,0.01 -0.1,0.02 0,0.01 -0.1,0.01 0,0.01 0,0 0,0.01 -0.1,0 0,0 0,0.01 0,0 -0.1,0 0,0 0,0 -0.1,0.01 0,0 0,0 -0.1,0 0,0 -0.1,0 0,0 0,0 -0.1,0 0,0 c -2.3,-2.2 -5.4,-2.23 -6.9,-2.23 v -1.25 c 0.9,0 3.2,0 5.1,0.96 v -17.76 c 0,-1.16 0,-1.61 -3.5,-1.61 h -1.3 v -1.25 c 0.6,0.03 4.9,0.14 6.2,0.14 1.1,0 5.5,-0.11 6.2,-0.14 v 1.25 h -1.3 c -3.5,0 -3.5,0.45 -3.5,1.61 z"
             id="path29504"
             style="fill:#000000;stroke-width:0" /><path
             d="m 1265.1,380.47 0,0.01 0,0 0,0.01 0,0.01 0,0.01 0,0.01 0,0.02 0,0.02 0,0.02 -0.1,0.02 0,0.02 0,0.02 0,0.03 0,0.02 0,0.02 0,0.03 0,0.02 0,0.03 -0.1,0.02 0,0.03 0,0.02 0,0.01 0,0.01 0,0.01 0,0.01 -0.1,0.01 0,0.01 0,0.01 0,0.01 0,0.01 0,0.01 -0.1,0.01 0,0 0,0.01 0,0.01 0,0 -0.1,0.01 0,0 0,0.01 0,0 -0.1,0 0,0.01 0,0 -0.1,0 0,0 c -1.1,0 -4.8,-0.41 -6.1,-0.5 -0.4,-0.05 -0.9,-0.09 -0.9,-1 0,-0.59 0.4,-0.59 1.2,-0.59 2.4,0 2.5,-0.35 2.5,-0.85 l -0.2,-1 -7.2,-28.7 c -0.2,-0.69 -0.2,-0.8 -0.2,-1.09 0,-1.15 1,-1.4 1.4,-1.4 0.9,0 1.6,0.6 1.9,1.3 l 0.9,3.78 1.1,4.49 c 0.3,1.09 0.6,2.18 0.9,3.34 0.1,0.3 0.5,1.94 0.5,2.24 0.2,0.45 1.7,3.25 3.4,4.59 1.1,0.8 2.7,1.73 4.8,1.73 2.1,0 2.7,-1.68 2.7,-3.48 0,-2.69 -1.9,-8.13 -3.1,-11.16 -0.4,-1.15 -0.6,-1.75 -0.6,-2.75 0,-2.33 1.7,-4.08 4,-4.08 4.7,0 6.6,7.27 6.6,7.68 0,0.5 -0.5,0.5 -0.6,0.5 -0.5,0 -0.5,-0.16 -0.8,-0.91 -0.7,-2.64 -2.3,-6.17 -5.1,-6.17 -0.8,0 -1.2,0.5 -1.2,1.64 0,1.25 0.5,2.45 0.9,3.55 0.8,2.14 3.1,8.06 3.1,10.95 0,3.23 -2,5.33 -5.8,5.33 -3.1,0 -5.5,-1.53 -7.3,-3.83 z"
             id="path29506"
             style="fill:#000000;stroke-width:0" /><path
             d="m 1291.1,389.12 0,0.04 0,0.04 0,0.05 0,0.04 0,0.03 0,0.04 0,0.04 0,0.03 0,0.04 0,0.03 0,0.03 0,0.03 0,0.03 0,0.03 0,0.03 0,0.02 0,0.03 0,0.02 0,0.03 0,0.02 0,0.04 -0.1,0.04 0,0.03 0,0.03 0,0.03 0,0.03 -0.1,0.02 0,0.02 0,0.02 -0.1,0.01 0,0.01 -0.1,0.02 0,0 0,0 0,0.01 -0.1,0 0,0.01 0,0 0,0 -0.1,0 0,0 0,0.01 -0.1,0 0,0 0,0 -0.1,0 0,0 -0.1,0 0,0 0,0 -0.1,0 0,0 c -2.3,-2.2 -5.4,-2.23 -6.9,-2.23 v -1.25 c 0.9,0 3.2,0 5.1,0.97 v -17.77 c 0,-1.16 0,-1.61 -3.5,-1.61 h -1.3 v -1.25 c 0.6,0.03 4.9,0.14 6.2,0.14 1.1,0 5.5,-0.11 6.2,-0.14 v 1.25 h -1.3 c -3.5,0 -3.5,0.45 -3.5,1.61 z"
             id="path29508"
             style="fill:#000000;stroke-width:0" /><path
             d="m 1283.7,336.27 0,-0.05 0,-0.04 -0.1,-0.05 0,-0.05 0,-0.05 0,-0.05 0,-0.05 0,-0.06 -0.1,-0.11 0,-0.11 0,-0.11 0,-0.11 0,-0.05 -0.1,-0.05 0,-0.05 0,-0.05 0,-0.05 0,-0.05 0,-0.04 0,-0.04 0,-0.04 0,-0.03 0,-0.03 0,-0.03 0,-0.03 0,-0.02 0,-0.01 0,0 0,-0.01 -0.1,-0.01 c 0,-0.76 0.7,-1.11 1.2,-1.11 0.7,0 1.2,0.46 1.4,0.77 0.2,0.31 0.4,1.42 0.6,2.16 0.2,0.65 0.6,2.26 0.8,3.14 0.2,0.76 0.4,1.53 0.6,2.32 0.3,1.44 0.4,1.71 1.4,3.15 1,1.39 2.7,3.2 5.3,3.2 2,0 2,-1.78 2,-2.44 0,-2.09 -1.5,-5.95 -2,-7.42 -0.4,-0.99 -0.6,-1.3 -0.6,-1.89 0,-1.84 1.6,-2.99 3.3,-2.99 3.5,0 5.1,4.8 5.1,5.33 0,0.46 -0.5,0.46 -0.6,0.46 -0.5,0 -0.5,-0.21 -0.7,-0.6 -0.8,-2.78 -2.3,-4.22 -3.6,-4.22 -0.8,0 -0.9,0.49 -0.9,1.22 0,0.8 0.2,1.25 0.8,2.83 0.4,1.08 1.8,4.77 1.8,6.72 0,3.39 -2.6,3.97 -4.5,3.97 -2.9,0 -4.8,-1.77 -5.9,-3.16 -0.2,2.39 -2.3,3.16 -3.7,3.16 -1.5,0 -2.3,-1.08 -2.8,-1.88 -0.7,-1.28 -1.2,-3.28 -1.2,-3.45 0,-0.45 0.5,-0.45 0.6,-0.45 0.5,0 0.5,0.11 0.7,1.04 0.6,2.07 1.2,3.77 2.6,3.77 0.9,0 1.1,-0.77 1.1,-1.7 0,-0.68 -0.3,-1.96 -0.5,-2.89 -0.3,-0.96 -0.6,-2.38 -0.8,-3.15 z"
             id="path29510"
             style="fill:#000000;stroke-width:0" /><path
             d="m 1330,341.95 0,0 0.1,0 0.1,0 0.1,0.01 0.1,0 0,0.01 0.1,0 0,0.01 0.1,0.01 0,0.01 0.1,0.01 0.1,0.01 0,0.02 0.1,0.02 0,0.02 0.1,0.02 0,0.03 0.1,0.03 0,0.03 0,0.04 0.1,0.04 0,0.02 0,0.02 0,0.02 0,0.03 0.1,0.02 0,0.03 0,0.02 0,0.03 0,0.03 0,0.03 0,0.03 0,0.03 0,0.03 0,0.04 0,0.03 0,0.04 0,0.04 0,0.04 c 0,0.86 -0.7,0.86 -1.3,0.86 h -20.8 c -0.6,0 -1.4,0 -1.4,-0.83 0,-0.88 0.8,-0.88 1.4,-0.88 z"
             id="path29512"
             style="fill:#000000;stroke-width:0" /><path
             d="m 1346.8,356.23 0,0.05 0,0.04 0,0.04 0,0.04 0,0.04 0,0.04 0,0.04 0,0.03 0,0.03 0,0.04 0,0.03 0,0.03 0,0.03 0,0.03 0,0.02 0,0.03 0,0.03 0,0.02 0,0.02 -0.1,0.03 0,0.04 0,0.03 0,0.04 0,0.03 0,0.03 -0.1,0.02 0,0.03 0,0.02 -0.1,0.01 0,0.02 0,0.01 -0.1,0.01 0,0.01 0,0 -0.1,0.01 0,0 0,0 0,0.01 -0.1,0 0,0 0,0 -0.1,0 0,0 0,0.01 -0.1,0 0,0 0,0 -0.1,0 0,0 -0.1,0 0,0 -0.1,0 c -2.2,-2.2 -5.4,-2.24 -6.8,-2.24 v -1.25 c 0.9,0 3.2,0 5.1,0.97 v -17.76 c 0,-1.16 0,-1.61 -3.5,-1.61 h -1.3 v -1.25 c 0.6,0.03 4.9,0.14 6.2,0.14 1,0 5.4,-0.11 6.2,-0.14 v 1.25 h -1.3 c -3.5,0 -3.5,0.45 -3.5,1.61 z"
             id="path29514"
             style="fill:#000000;stroke-width:0" /></g>      </g>
    </g>
    <g
       id="g30599">
      <g
         transform="matrix(0.19514853,0,0,0.19514853,226.84531,53.145736)"
         id="g29716">
        <g
           transform="matrix(1.0629921,0,0,-1.0629921,-186.02362,789.27165)"
           id="content"
           xml:space="preserve"
           style="font-style:normal;font-variant:normal;font-weight:normal;font-stretch:normal;letter-spacing:normal;word-spacing:normal;text-anchor:start;fill:none;stroke:#000000;stroke-linecap:butt;stroke-linejoin:miter;stroke-miterlimit:10.43299961;stroke-opacity:1;stroke-dasharray:none;stroke-dashoffset:0"><path
             d="m 1143,357.89 h 13.9 c 0.7,0 1.6,0 1.6,1 0,1 -0.9,1 -1.6,1 H 1143 v 13.96 c 0,0.69 0,1.64 -1,1.64 -1,0 -1,-0.95 -1,-1.64 v -13.96 h -14 c -0.7,0 -1.6,0 -1.6,-1 0,-1 0.9,-1 1.6,-1 h 14 v -13.93 c 0,-0.71 0,-1.66 1,-1.66 1,0 1,0.95 1,1.66 z"
             id="path29719"
             style="fill:#000000;stroke-width:0" /><path
             d="m 1178.3,359.96 0,0.04 0,0.05 0,0.04 0,0.05 0.1,0.04 0,0.04 0,0.04 0,0.04 0,0.07 0,0.07 0,0.06 0.1,0.06 0,0.06 0,0.05 0,0.05 0,0.04 0.1,0.04 0,0.04 0,0.04 0,0.03 0.1,0.03 0,0.02 0,0.03 0.1,0.02 0,0.02 0,0.02 0.1,0.01 0,0.02 0.1,0.01 0,0.01 0.1,0.01 0,0.01 0.1,0.01 0,0 0.1,0.01 0.1,0 c 0.2,0.04 1.4,0.04 2.1,0.04 2.1,0 3,0 3.9,-0.29 1.5,-0.48 1.6,-1.5 1.6,-2.75 0,-0.54 0,-1 -0.2,-2.81 l -0.1,-0.39 c 0,-0.34 0.2,-0.51 0.6,-0.51 0.5,0 0.6,0.31 0.6,0.86 l 1,6.65 c 0,0.5 -0.4,0.5 -1.1,0.5 h -21.4 c -0.8,0 -0.9,0 -1.2,-0.73 l -2.2,-6.17 c 0,-0.15 -0.1,-0.46 -0.1,-0.63 0,-0.14 0,-0.48 0.5,-0.48 0.5,0 0.6,0.17 0.8,0.82 2,5.58 3.2,5.93 8.5,5.93 h 1.4 c 1.1,0 1.1,-0.04 1.1,-0.35 0,-0.03 0,-0.2 -0.1,-0.73 l -4.7,-18.33 c -0.3,-1.28 -0.4,-1.64 -4,-1.64 -1.3,0 -1.6,0 -1.6,-0.77 0,-0.09 0.1,-0.48 0.6,-0.48 1,0 2,0.11 3,0.11 1,0 2,0.03 3,0.03 1,0 2.2,0 3.1,-0.03 1,-0.05 2,-0.11 2.9,-0.11 0.3,0 0.9,0 0.9,0.76 0,0.49 -0.4,0.49 -1.5,0.49 -0.6,0 -1.3,0.05 -2,0.08 -1.2,0.09 -1.2,0.23 -1.2,0.65 0,0.25 0,0.32 0.1,0.8 z"
             id="path29721"
             style="fill:#000000;stroke-width:0" /><path
             d="m 1215.8,363.33 0,0.11 0.1,0.11 0,0.11 0,0.11 0.1,0.12 0,0.12 0,0.25 0.1,0.25 0.1,0.25 0,0.25 0.1,0.24 0,0.12 0,0.11 0.1,0.11 0,0.11 0,0.11 0,0.1 0.1,0.09 0,0.09 0,0.08 0,0.08 0,0.07 0,0.07 0.1,0.05 0,0.05 0,0.04 0,0.04 c 0,0.9 -0.7,1.34 -1.5,1.34 -0.6,0 -1.5,-0.39 -1.8,-1.39 -0.2,-0.34 -2.5,-9.86 -2.9,-11.16 -0.3,-1.5 -0.4,-2.39 -0.4,-3.29 0,-0.55 0,-0.64 0,-0.89 -1.1,-2.64 -2.6,-4.19 -4.5,-4.19 -4,0 -4,3.69 -4,4.53 0,1.59 0.2,3.55 2.6,9.67 0.5,1.49 0.8,2.19 0.8,3.19 0,2.23 -1.6,4.08 -4.1,4.08 -4.7,0 -6.6,-7.22 -6.6,-7.67 0,-0.5 0.5,-0.5 0.6,-0.5 0.5,0 0.6,0.1 0.8,0.9 1.4,4.63 3.3,6.17 5.1,6.17 0.4,0 1.2,-0.04 1.2,-1.64 0,-1.25 -0.5,-2.64 -0.9,-3.48 -2.2,-5.88 -2.8,-8.17 -2.8,-10.06 0,-4.54 3.4,-6.29 7.1,-6.29 0.9,0 3.2,0 5.2,3.49 1.3,-3.19 4.7,-3.49 6.2,-3.49 3.8,0 5.9,3.15 7.2,6.13 1.7,3.89 3.3,10.56 3.3,12.95 0,2.75 -1.3,3.49 -2.2,3.49 -1.2,0 -2.4,-1.3 -2.4,-2.39 0,-0.64 0.2,-0.94 0.7,-1.35 0.5,-0.54 1.8,-1.84 1.8,-4.23 0,-1.69 -1.5,-6.58 -2.8,-9.11 -1.2,-2.64 -3,-4.39 -5.4,-4.39 -2.4,0 -3.7,1.5 -3.7,4.33 0,1.4 0.3,2.95 0.5,3.64 z"
             id="path29723"
             style="fill:#000000;stroke-width:0" /><path
             d="m 1246,345.22 h -1.2 c 0,-0.76 -0.4,-2.83 -0.9,-3.17 -0.2,-0.2 -2.9,-0.2 -3.4,-0.2 h -6.4 c 3.6,3.23 4.9,4.2 7,5.84 2.5,2.06 4.9,4.22 4.9,7.53 0,4.22 -3.7,6.8 -8.1,6.8 -4.3,0 -7.3,-3.03 -7.3,-6.23 0,-1.79 1.5,-1.96 1.9,-1.96 0.8,0 1.8,0.6 1.8,1.85 0,0.62 -0.2,1.84 -2,1.84 1,2.47 3.4,3.23 5.1,3.23 3.4,0 5.3,-2.7 5.3,-5.53 0,-3.03 -2.2,-5.43 -3.3,-6.68 l -8.4,-8.3 c -0.4,-0.31 -0.4,-0.39 -0.4,-1.36 h 14.4 z"
             id="path29725"
             style="fill:#000000;stroke-width:0" /><path
             d="m 1265.1,380.47 0,0.01 0,0 0,0.01 0,0.01 0,0.01 0,0.01 0,0.02 0,0.02 0,0.02 -0.1,0.02 0,0.02 0,0.02 0,0.03 0,0.02 0,0.02 0,0.03 0,0.02 0,0.03 -0.1,0.02 0,0.03 0,0.02 0,0.01 0,0.01 0,0.01 0,0.01 -0.1,0.01 0,0.01 0,0.01 0,0.01 0,0.01 0,0.01 -0.1,0.01 0,0 0,0.01 0,0.01 0,0 -0.1,0.01 0,0 0,0.01 0,0 -0.1,0 0,0.01 0,0 -0.1,0 0,0 c -1.1,0 -4.8,-0.41 -6.1,-0.5 -0.4,-0.05 -0.9,-0.09 -0.9,-1 0,-0.59 0.4,-0.59 1.2,-0.59 2.4,0 2.5,-0.35 2.5,-0.85 l -0.2,-1 -7.2,-28.7 c -0.2,-0.69 -0.2,-0.8 -0.2,-1.09 0,-1.15 1,-1.4 1.4,-1.4 0.9,0 1.6,0.6 1.9,1.3 l 0.9,3.78 1.1,4.49 c 0.3,1.09 0.6,2.18 0.9,3.34 0.1,0.3 0.5,1.94 0.5,2.24 0.2,0.45 1.7,3.25 3.4,4.59 1.1,0.8 2.7,1.73 4.8,1.73 2.1,0 2.7,-1.68 2.7,-3.48 0,-2.69 -1.9,-8.13 -3.1,-11.16 -0.4,-1.15 -0.6,-1.75 -0.6,-2.75 0,-2.33 1.7,-4.08 4,-4.08 4.7,0 6.6,7.27 6.6,7.68 0,0.5 -0.5,0.5 -0.6,0.5 -0.5,0 -0.5,-0.16 -0.8,-0.91 -0.7,-2.64 -2.3,-6.17 -5.1,-6.17 -0.8,0 -1.2,0.5 -1.2,1.64 0,1.25 0.5,2.45 0.9,3.55 0.8,2.14 3.1,8.06 3.1,10.95 0,3.23 -2,5.33 -5.8,5.33 -3.1,0 -5.5,-1.53 -7.3,-3.83 z"
             id="path29727"
             style="fill:#000000;stroke-width:0" /><path
             d="m 1297,373.3 h -1.2 c 0,-0.76 -0.4,-2.82 -0.9,-3.17 -0.2,-0.2 -2.9,-0.2 -3.4,-0.2 h -6.4 c 3.6,3.23 4.9,4.2 7,5.84 2.5,2.07 4.9,4.22 4.9,7.53 0,4.22 -3.7,6.8 -8.1,6.8 -4.3,0 -7.3,-3.03 -7.3,-6.23 0,-1.78 1.5,-1.96 1.9,-1.96 0.8,0 1.8,0.6 1.8,1.85 0,0.62 -0.2,1.84 -2,1.84 1,2.47 3.4,3.24 5.1,3.24 3.4,0 5.3,-2.71 5.3,-5.54 0,-3.03 -2.2,-5.43 -3.3,-6.68 l -8.4,-8.3 c -0.4,-0.31 -0.4,-0.39 -0.4,-1.36 h 14.4 z"
             id="path29729"
             style="fill:#000000;stroke-width:0" /><path
             d="m 1283.7,336.27 0,-0.05 0,-0.04 -0.1,-0.05 0,-0.05 0,-0.05 0,-0.05 0,-0.05 0,-0.06 -0.1,-0.11 0,-0.11 0,-0.11 0,-0.11 0,-0.05 -0.1,-0.05 0,-0.05 0,-0.05 0,-0.05 0,-0.05 0,-0.04 0,-0.04 0,-0.04 0,-0.03 0,-0.03 0,-0.03 0,-0.03 0,-0.02 0,-0.01 0,0 0,-0.01 -0.1,-0.01 c 0,-0.76 0.7,-1.11 1.2,-1.11 0.7,0 1.2,0.46 1.4,0.77 0.2,0.31 0.4,1.42 0.6,2.16 0.2,0.65 0.6,2.26 0.8,3.14 0.2,0.76 0.4,1.53 0.6,2.32 0.3,1.44 0.4,1.71 1.4,3.15 1,1.39 2.7,3.2 5.3,3.2 2,0 2,-1.78 2,-2.44 0,-2.09 -1.5,-5.95 -2,-7.42 -0.4,-0.99 -0.6,-1.3 -0.6,-1.89 0,-1.84 1.6,-2.99 3.3,-2.99 3.5,0 5.1,4.8 5.1,5.33 0,0.46 -0.5,0.46 -0.6,0.46 -0.5,0 -0.5,-0.21 -0.7,-0.6 -0.8,-2.78 -2.3,-4.22 -3.6,-4.22 -0.8,0 -0.9,0.49 -0.9,1.22 0,0.8 0.2,1.25 0.8,2.83 0.4,1.08 1.8,4.77 1.8,6.72 0,3.39 -2.6,3.97 -4.5,3.97 -2.9,0 -4.8,-1.77 -5.9,-3.16 -0.2,2.39 -2.3,3.16 -3.7,3.16 -1.5,0 -2.3,-1.08 -2.8,-1.88 -0.7,-1.28 -1.2,-3.28 -1.2,-3.45 0,-0.45 0.5,-0.45 0.6,-0.45 0.5,0 0.5,0.11 0.7,1.04 0.6,2.07 1.2,3.77 2.6,3.77 0.9,0 1.1,-0.77 1.1,-1.7 0,-0.68 -0.3,-1.96 -0.5,-2.89 -0.3,-0.96 -0.6,-2.38 -0.8,-3.15 z"
             id="path29731"
             style="fill:#000000;stroke-width:0" /><path
             d="m 1330,341.95 0,0 0.1,0 0.1,0 0.1,0.01 0.1,0 0,0.01 0.1,0 0,0.01 0.1,0.01 0,0.01 0.1,0.01 0.1,0.01 0,0.02 0.1,0.02 0,0.02 0.1,0.02 0,0.03 0.1,0.03 0,0.03 0,0.04 0.1,0.04 0,0.02 0,0.02 0,0.02 0,0.03 0.1,0.02 0,0.03 0,0.02 0,0.03 0,0.03 0,0.03 0,0.03 0,0.03 0,0.03 0,0.04 0,0.03 0,0.04 0,0.04 0,0.04 c 0,0.86 -0.7,0.86 -1.3,0.86 h -20.8 c -0.6,0 -1.4,0 -1.4,-0.83 0,-0.88 0.8,-0.88 1.4,-0.88 z"
             id="path29733"
             style="fill:#000000;stroke-width:0" /><path
             d="m 1346.8,356.23 0,0.05 0,0.04 0,0.04 0,0.04 0,0.04 0,0.04 0,0.04 0,0.03 0,0.03 0,0.04 0,0.03 0,0.03 0,0.03 0,0.03 0,0.02 0,0.03 0,0.03 0,0.02 0,0.02 -0.1,0.03 0,0.04 0,0.03 0,0.04 0,0.03 0,0.03 -0.1,0.02 0,0.03 0,0.02 -0.1,0.01 0,0.02 0,0.01 -0.1,0.01 0,0.01 0,0 -0.1,0.01 0,0 0,0 0,0.01 -0.1,0 0,0 0,0 -0.1,0 0,0 0,0.01 -0.1,0 0,0 0,0 -0.1,0 0,0 -0.1,0 0,0 -0.1,0 c -2.2,-2.2 -5.4,-2.24 -6.8,-2.24 v -1.25 c 0.9,0 3.2,0 5.1,0.97 v -17.76 c 0,-1.16 0,-1.61 -3.5,-1.61 h -1.3 v -1.25 c 0.6,0.03 4.9,0.14 6.2,0.14 1,0 5.4,-0.11 6.2,-0.14 v 1.25 h -1.3 c -3.5,0 -3.5,0.45 -3.5,1.61 z"
             id="path29735"
             style="fill:#000000;stroke-width:0" /></g>      </g>
      <g
         transform="matrix(0.19514853,0,0,0.19514853,214.62326,39.346651)"
         id="g30101">
        <g
           transform="matrix(1.0629921,0,0,-1.0629921,-186.02362,789.27165)"
           id="g30103"
           xml:space="preserve"
           style="font-style:normal;font-variant:normal;font-weight:normal;font-stretch:normal;letter-spacing:normal;word-spacing:normal;text-anchor:start;fill:none;stroke:#000000;stroke-linecap:butt;stroke-linejoin:miter;stroke-miterlimit:10.43299961;stroke-opacity:1;stroke-dasharray:none;stroke-dashoffset:0"><path
             d="m 1117.1,350.58 0.3,0.27 0.2,0.26 0.2,0.24 0.3,0.24 0.2,0.23 0.2,0.23 0.2,0.21 0.2,0.21 0.2,0.2 0.2,0.2 0.2,0.19 0.2,0.18 0.2,0.18 0.2,0.17 0.3,0.33 0.4,0.32 0.3,0.3 0.3,0.3 0.3,0.28 0.7,0.56 0.3,0.29 0.3,0.28 c 0,0.05 3.1,2.69 4.9,4.49 4.8,4.64 5.9,7.03 5.9,7.22 0,0.5 -0.5,0.5 -0.6,0.5 -0.3,0 -0.5,-0.1 -0.8,-0.55 -1.4,-2.39 -2.5,-3.19 -3.7,-3.19 -1.2,0 -1.8,0.75 -2.5,1.6 -1,1.15 -1.8,2.14 -3.5,2.14 -3.7,0 -6,-4.63 -6,-5.67 0,-0.25 0.2,-0.55 0.6,-0.55 0.5,0 0.6,0.25 0.6,0.55 1,2.29 3.9,2.34 4.3,2.34 1,0 2,-0.36 3.1,-0.75 2,-0.75 2.6,-0.75 3.9,-0.75 -1.8,-2.14 -6,-5.74 -7,-6.53 l -4.4,-4.17 c -3.4,-3.35 -5.2,-6.19 -5.2,-6.54 0,-0.5 0.5,-0.5 0.6,-0.5 0.4,0 0.5,0.1 0.8,0.65 1.2,1.75 2.7,3.09 4.2,3.09 1.2,0 1.7,-0.45 2.9,-1.89 0.9,-1.05 1.8,-1.85 3.2,-1.85 5,0 7.9,6.33 7.9,7.68 0,0.25 -0.3,0.5 -0.6,0.5 -0.5,0 -0.6,-0.3 -0.7,-0.66 -1.2,-3.23 -4.4,-4.17 -6,-4.17 -1,0 -1.9,0.3 -3,0.64 -1.7,0.64 -2.4,0.84 -3.5,0.84 0,0 -0.8,0 -1.3,-0.14 z"
             id="path30105"
             style="fill:#000000;stroke-width:0" /><path
             d="m 1153.4,373.3 h -1.2 c -0.1,-0.76 -0.4,-2.82 -0.9,-3.17 -0.3,-0.2 -3,-0.2 -3.4,-0.2 h -6.5 c 3.7,3.23 4.9,4.2 7,5.84 2.6,2.07 5,4.22 5,7.53 0,4.22 -3.7,6.8 -8.2,6.8 -4.3,0 -7.2,-3.03 -7.2,-6.23 0,-1.78 1.5,-1.96 1.8,-1.96 0.9,0 1.9,0.6 1.9,1.85 0,0.62 -0.3,1.84 -2.1,1.84 1.1,2.47 3.5,3.24 5.1,3.24 3.5,0 5.3,-2.71 5.3,-5.54 0,-3.03 -2.1,-5.43 -3.3,-6.68 l -8.4,-8.3 c -0.3,-0.31 -0.3,-0.39 -0.3,-1.36 h 14.3 z"
             id="path30107"
             style="fill:#000000;stroke-width:0" /><path
             d="m 1137.9,336.27 0,-0.05 0,-0.04 -0.1,-0.05 0,-0.05 0,-0.05 0,-0.05 0,-0.05 0,-0.06 -0.1,-0.11 0,-0.11 0,-0.11 0,-0.11 0,-0.05 -0.1,-0.05 0,-0.05 0,-0.05 0,-0.05 0,-0.05 0,-0.04 0,-0.04 0,-0.04 0,-0.03 0,-0.03 0,-0.03 0,-0.03 0,-0.02 0,-0.01 0,0 0,-0.01 0,-0.01 c 0,-0.76 0.6,-1.11 1.1,-1.11 0.7,0 1.2,0.46 1.4,0.77 0.2,0.31 0.5,1.42 0.6,2.16 0.2,0.65 0.6,2.26 0.8,3.14 0.2,0.76 0.4,1.53 0.6,2.32 0.3,1.44 0.4,1.71 1.4,3.15 1,1.39 2.7,3.2 5.3,3.2 2,0 2,-1.78 2,-2.44 0,-2.09 -1.5,-5.95 -2,-7.42 -0.4,-0.99 -0.6,-1.3 -0.6,-1.89 0,-1.84 1.6,-2.99 3.4,-2.99 3.4,0 5,4.8 5,5.33 0,0.46 -0.5,0.46 -0.6,0.46 -0.5,0 -0.5,-0.21 -0.7,-0.6 -0.7,-2.78 -2.2,-4.22 -3.6,-4.22 -0.8,0 -0.9,0.49 -0.9,1.22 0,0.8 0.1,1.25 0.8,2.83 0.4,1.08 1.8,4.77 1.8,6.72 0,3.39 -2.6,3.97 -4.5,3.97 -2.9,0 -4.8,-1.77 -5.9,-3.16 -0.2,2.39 -2.3,3.16 -3.7,3.16 -1.5,0 -2.3,-1.08 -2.8,-1.88 -0.7,-1.28 -1.2,-3.28 -1.2,-3.45 0,-0.45 0.5,-0.45 0.6,-0.45 0.5,0 0.5,0.11 0.7,1.04 0.6,2.07 1.2,3.77 2.6,3.77 0.9,0 1.1,-0.77 1.1,-1.7 0,-0.68 -0.3,-1.96 -0.5,-2.89 -0.3,-0.96 -0.6,-2.38 -0.8,-3.15 z"
             id="path30109"
             style="fill:#000000;stroke-width:0" /><path
             d="m 1208.8,362.74 0.1,0 0.2,0 0.1,0 0.1,0.01 0.1,0 0,0.01 0.1,0.01 0.1,0.01 0,0.01 0.1,0.01 0.1,0.02 0,0.02 0.1,0.02 0.1,0.03 0,0.02 0.1,0.03 0,0.04 0.1,0.04 0,0.04 0.1,0.04 0,0.05 0,0.03 0.1,0.03 0,0.03 0,0.03 0,0.03 0,0.03 0,0.03 0,0.04 0,0.03 0.1,0.04 0,0.04 0,0.04 0,0.04 0,0.04 0,0.05 0,0.04 c 0,1 -1,1 -1.7,1 H 1179 c -0.7,0 -1.6,0 -1.6,-1 0,-0.98 0.9,-0.98 1.6,-0.98 z"
             id="path30111"
             style="fill:#000000;stroke-width:0" /><path
             d="m 1208.8,353.07 0.1,0 0.1,0 0.1,0 0.1,0 0.1,0.01 0.1,0 0.1,0.01 0,0.01 0.1,0.01 0.1,0.01 0,0.01 0.1,0.02 0.1,0.02 0,0.02 0.1,0.03 0,0.02 0.1,0.04 0,0.03 0.1,0.04 0,0.04 0.1,0.05 0,0.02 0,0.03 0,0.02 0.1,0.03 0,0.03 0,0.03 0,0.03 0,0.04 0,0.03 0,0.04 0,0.03 0.1,0.04 0,0.04 0,0.04 0,0.04 0,0.05 0,0.04 0,0.05 c 0,1 -1,1 -1.7,1 H 1179 c -0.7,0 -1.6,0 -1.6,-1 0,-1 0.9,-1 1.6,-1 z"
             id="path30113"
             style="fill:#000000;stroke-width:0" /><path
             d="m 1251.9,362.93 0,0.01 0,0.02 0,0.02 0,0.01 0,0.02 -0.1,0.02 0,0.02 0,0.02 0,0.02 0,0.02 0,0.02 0,0.01 0,0.02 0,0.02 0,0.02 0,0.02 0,0.01 -0.1,0.02 0,0.02 0,0.01 0,0.02 0,0.01 -0.1,0.01 0,0.01 0,0.01 0,0.01 0,0.01 -0.1,0 0,0.01 0,0 0,0 0,0 0,0.01 -0.1,0 0,0 0,0 0,0 c -0.2,0 -0.2,-0.05 -0.7,-0.5 l -1.7,-1.99 c -1.3,1.86 -3.5,2.49 -5.6,2.49 -5,0 -9.3,-3.99 -9.3,-7.99 0,-0.51 0.1,-1.92 1.1,-3.2 1.2,-1.39 2.5,-1.7 4.9,-2.26 0.7,-0.18 2.4,-0.57 2.9,-0.71 1.2,-0.28 3.3,-1.04 3.3,-3.65 0,-2.82 -3,-6.13 -6.9,-6.13 -3.1,0 -6.8,1.08 -6.8,4.94 0,0.36 0.1,1.12 0.2,1.75 0,0.14 0,0.17 0,0.2 0,0.46 -0.4,0.46 -0.5,0.46 -0.5,0 -0.5,-0.07 -0.7,-0.69 l -1.8,-6.97 c 0,-0.14 -0.1,-0.36 -0.1,-0.53 0,-0.21 0.2,-0.42 0.5,-0.42 0.2,0 0.3,0.04 0.7,0.5 0.4,0.4 1.3,1.53 1.7,1.95 1.8,-2.03 4.6,-2.45 6.6,-2.45 5.3,0 9.6,4.53 9.6,8.64 0,1.54 -0.7,2.93 -1.4,3.73 -1.2,1.25 -1.8,1.39 -6.3,2.44 -0.7,0.17 -1.9,0.45 -2.2,0.56 -0.8,0.31 -2.3,1.19 -2.3,3.17 0,2.75 3.1,5.53 6.7,5.53 3.8,0 5.6,-2.12 5.6,-5.43 0,-0.46 -0.1,-1.25 -0.1,-1.57 0,-0.48 0.4,-0.48 0.6,-0.48 0.5,0 0.5,0.17 0.6,0.77 z"
             id="path30115"
             style="fill:#000000;stroke-width:0" /><path
             d="m 1279.1,363.33 0,0.11 0,0.11 0,0.11 0.1,0.11 0,0.12 0,0.12 0.1,0.25 0,0.25 0.1,0.25 0.1,0.25 0,0.24 0,0.12 0.1,0.11 0,0.11 0,0.11 0.1,0.11 0,0.1 0,0.09 0,0.09 0,0.08 0.1,0.08 0,0.07 0,0.07 0,0.05 0,0.05 0,0.04 0,0.04 c 0,0.9 -0.7,1.34 -1.5,1.34 -0.5,0 -1.4,-0.39 -1.8,-1.39 -0.1,-0.34 -2.5,-9.86 -2.8,-11.16 -0.4,-1.5 -0.5,-2.39 -0.5,-3.29 0,-0.55 0,-0.64 0.1,-0.89 -1.2,-2.64 -2.7,-4.19 -4.6,-4.19 -4,0 -4,3.69 -4,4.53 0,1.59 0.3,3.55 2.6,9.67 0.5,1.49 0.9,2.19 0.9,3.19 0,2.23 -1.7,4.08 -4.1,4.08 -4.8,0 -6.6,-7.22 -6.6,-7.67 0,-0.5 0.5,-0.5 0.6,-0.5 0.5,0 0.5,0.1 0.8,0.9 1.3,4.63 3.3,6.17 5,6.17 0.4,0 1.3,-0.04 1.3,-1.64 0,-1.25 -0.6,-2.64 -0.9,-3.48 -2.2,-5.88 -2.8,-8.17 -2.8,-10.06 0,-4.54 3.3,-6.29 7,-6.29 0.9,0 3.2,0 5.2,3.49 1.3,-3.19 4.8,-3.49 6.3,-3.49 3.7,0 5.9,3.15 7.2,6.13 1.7,3.89 3.3,10.56 3.3,12.95 0,2.75 -1.4,3.49 -2.2,3.49 -1.3,0 -2.5,-1.3 -2.5,-2.39 0,-0.64 0.3,-0.94 0.7,-1.35 0.6,-0.54 1.8,-1.84 1.8,-4.23 0,-1.69 -1.4,-6.58 -2.7,-9.11 -1.3,-2.64 -3.1,-4.39 -5.5,-4.39 -2.3,0 -3.7,1.5 -3.7,4.33 0,1.4 0.4,2.95 0.6,3.64 z"
             id="path30117"
             style="fill:#000000;stroke-width:0" /><path
             d="m 1309.3,345.22 h -1.2 c -0.1,-0.76 -0.5,-2.83 -0.9,-3.17 -0.3,-0.2 -3,-0.2 -3.5,-0.2 h -6.4 c 3.7,3.23 4.9,4.2 7,5.84 2.6,2.06 5,4.22 5,7.53 0,4.22 -3.7,6.8 -8.2,6.8 -4.3,0 -7.2,-3.03 -7.2,-6.23 0,-1.79 1.5,-1.96 1.8,-1.96 0.9,0 1.9,0.6 1.9,1.85 0,0.62 -0.3,1.84 -2.1,1.84 1.1,2.47 3.5,3.23 5.1,3.23 3.5,0 5.3,-2.7 5.3,-5.53 0,-3.03 -2.2,-5.43 -3.3,-6.68 l -8.4,-8.3 c -0.3,-0.31 -0.3,-0.39 -0.3,-1.36 h 14.3 z"
             id="path30119"
             style="fill:#000000;stroke-width:0" /><path
             d="m 1328.3,380.47 0,0.01 0,0 0,0.01 0,0.01 0,0.01 0,0.01 0,0.02 0,0.02 0,0.02 0,0.02 0,0.02 0,0.02 0,0.03 0,0.02 -0.1,0.02 0,0.03 0,0.02 0,0.03 0,0.02 0,0.03 -0.1,0.02 0,0.01 0,0.01 0,0.01 0,0.01 0,0.01 0,0.01 -0.1,0.01 0,0.01 0,0.01 0,0.01 0,0.01 0,0 -0.1,0.01 0,0.01 0,0 0,0.01 -0.1,0 0,0.01 0,0 0,0 -0.1,0.01 0,0 0,0 0,0 c -1.2,0 -4.8,-0.41 -6.1,-0.5 -0.4,-0.05 -1,-0.09 -1,-1 0,-0.59 0.5,-0.59 1.2,-0.59 2.4,0 2.5,-0.35 2.5,-0.85 l -0.1,-1 -7.3,-28.7 c -0.2,-0.69 -0.2,-0.8 -0.2,-1.09 0,-1.15 1,-1.4 1.5,-1.4 0.8,0 1.6,0.6 1.8,1.3 l 1,3.78 1.1,4.49 c 0.3,1.09 0.6,2.18 0.8,3.34 0.1,0.3 0.5,1.94 0.6,2.24 0.1,0.45 1.7,3.25 3.4,4.59 1,0.8 2.6,1.73 4.7,1.73 2.2,0 2.7,-1.68 2.7,-3.48 0,-2.69 -1.9,-8.13 -3.1,-11.16 -0.4,-1.15 -0.6,-1.75 -0.6,-2.75 0,-2.33 1.7,-4.08 4.1,-4.08 4.7,0 6.5,7.27 6.5,7.68 0,0.5 -0.4,0.5 -0.6,0.5 -0.5,0 -0.5,-0.16 -0.7,-0.91 -0.8,-2.64 -2.4,-6.17 -5.1,-6.17 -0.9,0 -1.2,0.5 -1.2,1.64 0,1.25 0.4,2.45 0.9,3.55 0.8,2.14 3,8.06 3,10.95 0,3.23 -2,5.33 -5.7,5.33 -3.2,0 -5.6,-1.53 -7.4,-3.83 z"
             id="path30121"
             style="fill:#000000;stroke-width:0" /><path
             d="m 1354.3,389.12 0,0.04 0,0.04 0,0.05 0,0.04 0,0.03 0,0.04 0,0.04 0,0.03 0,0.04 0,0.03 0,0.03 0,0.03 0,0.03 0,0.03 0,0.03 0,0.02 0,0.03 0,0.02 0,0.05 0,0.04 0,0.04 0,0.03 -0.1,0.03 0,0.03 0,0.03 0,0.02 -0.1,0.02 0,0.02 0,0.01 -0.1,0.01 0,0.02 0,0 -0.1,0 0,0.01 0,0 0,0.01 -0.1,0 0,0 0,0 -0.1,0 0,0.01 0,0 -0.1,0 0,0 0,0 -0.1,0 0,0 -0.1,0 0,0 -0.1,0 0,0 c -2.2,-2.2 -5.4,-2.23 -6.8,-2.23 v -1.25 c 0.8,0 3.1,0 5,0.97 v -17.77 c 0,-1.16 0,-1.61 -3.5,-1.61 h -1.3 v -1.25 c 0.6,0.03 4.9,0.14 6.2,0.14 1.1,0 5.5,-0.11 6.3,-0.14 v 1.25 h -1.4 c -3.5,0 -3.5,0.45 -3.5,1.61 z"
             id="path30123"
             style="fill:#000000;stroke-width:0" /><path
             d="m 1346.9,336.27 0,-0.05 0,-0.04 0,-0.05 0,-0.05 0,-0.05 -0.1,-0.05 0,-0.05 0,-0.06 0,-0.11 0,-0.11 -0.1,-0.11 0,-0.11 0,-0.05 0,-0.05 0,-0.05 0,-0.05 0,-0.05 -0.1,-0.05 0,-0.04 0,-0.04 0,-0.04 0,-0.03 0,-0.03 0,-0.03 0,-0.03 0,-0.02 0,-0.01 0,0 0,-0.01 0,-0.01 c 0,-0.76 0.6,-1.11 1.2,-1.11 0.6,0 1.1,0.46 1.3,0.77 0.2,0.31 0.5,1.42 0.7,2.16 0.1,0.65 0.5,2.26 0.7,3.14 0.2,0.76 0.4,1.53 0.6,2.32 0.4,1.44 0.5,1.71 1.5,3.15 1,1.39 2.6,3.2 5.2,3.2 2,0 2,-1.78 2,-2.44 0,-2.09 -1.4,-5.95 -2,-7.42 -0.4,-0.99 -0.5,-1.3 -0.5,-1.89 0,-1.84 1.5,-2.99 3.3,-2.99 3.5,0 5,4.8 5,5.33 0,0.46 -0.4,0.46 -0.5,0.46 -0.5,0 -0.6,-0.21 -0.7,-0.6 -0.8,-2.78 -2.3,-4.22 -3.7,-4.22 -0.7,0 -0.9,0.49 -0.9,1.22 0,0.8 0.2,1.25 0.8,2.83 0.4,1.08 1.9,4.77 1.9,6.72 0,3.39 -2.7,3.97 -4.6,3.97 -2.8,0 -4.8,-1.77 -5.8,-3.16 -0.3,2.39 -2.3,3.16 -3.8,3.16 -1.5,0 -2.3,-1.08 -2.7,-1.88 -0.8,-1.28 -1.3,-3.28 -1.3,-3.45 0,-0.45 0.5,-0.45 0.6,-0.45 0.5,0 0.5,0.11 0.8,1.04 0.5,2.07 1.2,3.77 2.5,3.77 0.9,0 1.2,-0.77 1.2,-1.7 0,-0.68 -0.3,-1.96 -0.6,-2.89 -0.2,-0.96 -0.6,-2.38 -0.8,-3.15 z"
             id="path30125"
             style="fill:#000000;stroke-width:0" /></g>      </g>
      <g
         transform="matrix(0.20287842,0,0,0.20287842,201.95904,65.240058)"
         id="g30476">
        <g
           transform="matrix(1.0629921,0,0,-1.0629921,-186.02362,789.27165)"
           id="g30478"
           xml:space="preserve"
           style="font-style:normal;font-variant:normal;font-weight:normal;font-stretch:normal;letter-spacing:normal;word-spacing:normal;text-anchor:start;fill:none;stroke:#000000;stroke-linecap:butt;stroke-linejoin:miter;stroke-miterlimit:10.43299961;stroke-opacity:1;stroke-dasharray:none;stroke-dashoffset:0"><path
             d="m 1158.3,365.43 0,0.03 0.1,0.03 0,0.06 0,0.05 0,0.06 0,0.05 0,0.05 0,0.04 0,0.05 0.1,0.04 0,0.04 0,0.03 0,0.04 0,0.03 0,0.03 0,0.04 0,0.02 0,0.03 0,0.03 0,0.06 0,0.05 0,0.05 0,0.05 0,0.06 0,0.03 0,0.02 0,0.03 0,0.04 c 0,0.9 -0.7,1.34 -1.4,1.34 -0.5,0 -1.3,-0.3 -1.8,-1.05 -0.1,-0.25 -0.5,-1.78 -0.6,-2.68 -0.4,-1.3 -0.8,-2.64 -1,-3.99 l -2.3,-8.97 c -0.2,-0.75 -2.3,-4.23 -5.6,-4.23 -2.6,0 -3.1,2.19 -3.1,4.03 0,2.3 0.8,5.39 2.5,9.77 0.8,2.04 1,2.59 1,3.59 0,2.23 -1.6,4.08 -4.1,4.08 -4.7,0 -6.5,-7.22 -6.5,-7.67 0,-0.5 0.5,-0.5 0.6,-0.5 0.5,0 0.5,0.1 0.8,0.9 1.3,4.69 3.3,6.17 5,6.17 0.4,0 1.2,0 1.2,-1.59 0,-1.25 -0.4,-2.53 -0.8,-3.48 -2,-5.29 -2.9,-8.13 -2.9,-10.47 0,-4.43 3.1,-5.93 6.1,-5.93 1.9,0 3.6,0.85 5,2.24 -0.6,-2.58 -1.2,-5.03 -3.2,-7.67 -1.3,-1.69 -3.2,-3.14 -5.5,-3.14 -0.7,0 -3,0.15 -3.8,2.09 0.8,0 1.5,0 2.1,0.61 0.6,0.44 1,1.09 1,2.03 0,1.55 -1.3,1.75 -1.8,1.75 -1.1,0 -2.8,-0.8 -2.8,-3.23 0,-2.5 2.2,-4.35 5.3,-4.35 5.1,0 10.3,4.55 11.7,10.17 z"
             id="path30480"
             style="fill:#000000;stroke-width:0" /><path
             d="m 1208.4,362.74 0.2,0 0.1,0 0.2,0 0,0.01 0.1,0 0.1,0.01 0,0.01 0.1,0.01 0.1,0.01 0.1,0.01 0,0.02 0.1,0.02 0,0.02 0.1,0.03 0.1,0.02 0,0.03 0.1,0.04 0,0.04 0.1,0.04 0,0.04 0.1,0.05 0,0.03 0,0.03 0,0.03 0,0.03 0,0.03 0.1,0.03 0,0.03 0,0.04 0,0.03 0,0.04 0,0.04 0,0.04 0,0.04 0,0.04 0,0.05 0,0.04 c 0,1 -0.9,1 -1.6,1 h -29.9 c -0.7,0 -1.6,0 -1.6,-1 0,-0.98 0.9,-0.98 1.7,-0.98 z"
             id="path30482"
             style="fill:#000000;stroke-width:0" /><path
             d="m 1208.5,353.07 0,0 0.1,0 0.1,0 0.2,0 0.1,0.01 0,0 0.1,0.01 0.1,0.01 0,0.01 0.1,0.01 0.1,0.01 0,0.02 0.1,0.02 0.1,0.02 0,0.03 0.1,0.02 0,0.04 0.1,0.03 0,0.04 0.1,0.04 0,0.05 0,0.02 0.1,0.03 0,0.02 0,0.03 0,0.03 0,0.03 0,0.03 0.1,0.04 0,0.03 0,0.04 0,0.03 0,0.04 0,0.04 0,0.04 0,0.04 0,0.05 0,0.04 0,0.05 c 0,1 -0.9,1 -1.7,1 h -29.7 c -0.8,0 -1.7,0 -1.7,-1 0,-1 0.9,-1 1.6,-1 z"
             id="path30484"
             style="fill:#000000;stroke-width:0" /><path
             d="m 1252.6,365.02 0,0 0.1,0 0.1,0 0.1,0 0,0.01 0.1,0 0.1,0.01 0.1,0.01 0.1,0.01 0.1,0.01 0.1,0.02 0.1,0.02 0.1,0.02 0.1,0.03 0.1,0.04 0.1,0.03 0.1,0.05 0.1,0.04 0.1,0.06 0.1,0.06 0.1,0.06 0.1,0.07 0,0.04 0,0.04 0.1,0.04 0,0.05 0,0.04 0.1,0.05 0,0.05 0,0.05 0.1,0.06 0,0.05 0,0.06 0,0.06 0,0.06 0.1,0.07 0,0.06 0,0.07 0,0.07 0,0.08 0,0.07 0,0.08 c 0,1.19 -1,1.19 -1.9,1.19 h -11.4 c -7.5,0 -13.1,-8.22 -13.1,-14.14 0,-4.39 3,-7.88 7.5,-7.88 l 0.1,1.1 c -2.5,0 -4.5,1.8 -4.5,5.37 0,1.5 0.6,5.6 2.4,8.53 2.1,3.44 5.1,4.13 6.7,4.13 4.2,0 4.6,-3.28 4.6,-4.83 0,-2.34 -1,-6.42 -2.6,-8.97 -2,-2.93 -4.7,-4.23 -6.6,-4.23 h 0 l -0.1,-1.1 c 5.9,0 12.5,6.04 12.5,13.71 0,0.84 0,3.23 -1.5,5.42 z"
             id="path30486"
             style="fill:#000000;stroke-width:0" /><path
             d="m 1273.5,334.49 0,0.02 0,0.03 0,0.01 0,0.02 0,0.01 0,0.02 0,0.02 0,0.01 -0.1,0.02 0,0.02 0,0.03 0,0.02 0,0.02 0,0.03 0,0.03 -0.1,0.03 0,0.04 0,0.03 0,0.02 -0.1,0.02 0,0.02 0,0.02 0,0.02 0,0.03 -0.1,0.02 0,0.02 0,0.03 0,0.03 -0.1,0.02 0,0.03 0,0.03 0,0.03 -0.1,0.03 0,0.03 0,0.03 -0.1,0.03 0,0.04 0,0.03 -0.1,0.04 0,0.04 0,0.03 -0.1,0.04 c -6.2,6.28 -7.8,15.69 -7.8,23.31 0,8.68 1.9,17.35 8,23.57 0.7,0.61 0.7,0.7 0.7,0.86 0,0.34 -0.2,0.48 -0.5,0.48 -0.5,0 -5,-3.37 -7.9,-9.7 -2.6,-5.49 -3.2,-11.02 -3.2,-15.21 0,-3.89 0.6,-9.9 3.3,-15.54 3,-6.13 7.3,-9.36 7.8,-9.36 0.3,0 0.5,0.14 0.5,0.5 z"
             id="path30488"
             style="fill:#000000;stroke-width:0" /><path
             d="m 1282.9,350.58 0.3,0.27 0.2,0.26 0.3,0.24 0.2,0.24 0.2,0.23 0.2,0.23 0.2,0.21 0.2,0.21 0.2,0.2 0.2,0.2 0.2,0.19 0.2,0.18 0.2,0.18 0.2,0.17 0.3,0.33 0.4,0.32 0.3,0.3 0.3,0.3 0.4,0.28 0.6,0.56 0.3,0.29 0.4,0.28 c 0,0.05 3,2.69 4.9,4.49 4.7,4.64 5.8,7.03 5.8,7.22 0,0.5 -0.5,0.5 -0.6,0.5 -0.3,0 -0.5,-0.1 -0.7,-0.55 -1.5,-2.39 -2.5,-3.19 -3.8,-3.19 -1.2,0 -1.7,0.75 -2.5,1.6 -0.9,1.15 -1.8,2.14 -3.4,2.14 -3.8,0 -6.1,-4.63 -6.1,-5.67 0,-0.25 0.2,-0.55 0.6,-0.55 0.5,0 0.6,0.25 0.7,0.55 0.9,2.29 3.8,2.34 4.2,2.34 1.1,0 2,-0.36 3.2,-0.75 2,-0.75 2.5,-0.75 3.8,-0.75 -1.8,-2.14 -6,-5.74 -6.9,-6.53 l -4.5,-4.17 c -3.4,-3.35 -5.2,-6.19 -5.2,-6.54 0,-0.5 0.5,-0.5 0.6,-0.5 0.4,0 0.5,0.1 0.8,0.65 1.2,1.75 2.7,3.09 4.3,3.09 1.1,0 1.6,-0.45 2.9,-1.89 0.8,-1.05 1.7,-1.85 3.2,-1.85 4.9,0 7.8,6.33 7.8,7.68 0,0.25 -0.2,0.5 -0.6,0.5 -0.5,0 -0.6,-0.3 -0.7,-0.66 -1.2,-3.23 -4.3,-4.17 -6,-4.17 -1,0 -1.9,0.3 -2.9,0.64 -1.7,0.64 -2.5,0.84 -3.5,0.84 -0.1,0 -0.9,0 -1.4,-0.14 z"
             id="path30490"
             style="fill:#000000;stroke-width:0" /><path
             d="m 1319.2,373.3 h -1.1 c -0.2,-0.76 -0.5,-2.82 -1,-3.17 -0.2,-0.2 -2.9,-0.2 -3.4,-0.2 h -6.4 c 3.6,3.23 4.9,4.2 6.9,5.84 2.6,2.07 5,4.22 5,7.53 0,4.22 -3.6,6.8 -8.1,6.8 -4.3,0 -7.3,-3.03 -7.3,-6.23 0,-1.78 1.5,-1.96 1.9,-1.96 0.8,0 1.8,0.6 1.8,1.85 0,0.62 -0.2,1.84 -2,1.84 1.1,2.47 3.4,3.24 5.1,3.24 3.5,0 5.3,-2.71 5.3,-5.54 0,-3.03 -2.2,-5.43 -3.3,-6.68 l -8.4,-8.3 c -0.4,-0.31 -0.4,-0.39 -0.4,-1.36 h 14.4 z"
             id="path30492"
             style="fill:#000000;stroke-width:0" /><path
             d="m 1303.7,336.27 0,-0.05 0,-0.04 0,-0.05 0,-0.05 0,-0.05 -0.1,-0.05 0,-0.05 0,-0.06 0,-0.11 0,-0.11 -0.1,-0.11 0,-0.11 0,-0.05 0,-0.05 0,-0.05 0,-0.05 0,-0.05 -0.1,-0.05 0,-0.04 0,-0.04 0,-0.04 0,-0.03 0,-0.03 0,-0.03 0,-0.03 0,-0.02 0,-0.01 0,0 0,-0.01 0,-0.01 c 0,-0.76 0.6,-1.11 1.2,-1.11 0.6,0 1.2,0.46 1.3,0.77 0.2,0.31 0.5,1.42 0.7,2.16 0.1,0.65 0.5,2.26 0.7,3.14 0.2,0.76 0.5,1.53 0.6,2.32 0.4,1.44 0.5,1.71 1.5,3.15 1,1.39 2.6,3.2 5.2,3.2 2,0 2.1,-1.78 2.1,-2.44 0,-2.09 -1.5,-5.95 -2.1,-7.42 -0.4,-0.99 -0.5,-1.3 -0.5,-1.89 0,-1.84 1.5,-2.99 3.3,-2.99 3.5,0 5,4.8 5,5.33 0,0.46 -0.5,0.46 -0.5,0.46 -0.5,0 -0.6,-0.21 -0.7,-0.6 -0.8,-2.78 -2.3,-4.22 -3.7,-4.22 -0.7,0 -0.9,0.49 -0.9,1.22 0,0.8 0.2,1.25 0.8,2.83 0.4,1.08 1.9,4.77 1.9,6.72 0,3.39 -2.7,3.97 -4.5,3.97 -2.9,0 -4.9,-1.77 -5.9,-3.16 -0.3,2.39 -2.3,3.16 -3.8,3.16 -1.5,0 -2.3,-1.08 -2.7,-1.88 -0.8,-1.28 -1.3,-3.28 -1.3,-3.45 0,-0.45 0.5,-0.45 0.6,-0.45 0.5,0 0.5,0.11 0.8,1.04 0.5,2.07 1.2,3.77 2.5,3.77 0.9,0 1.2,-0.77 1.2,-1.7 0,-0.68 -0.3,-1.96 -0.6,-2.89 -0.2,-0.96 -0.6,-2.38 -0.8,-3.15 z"
             id="path30494"
             style="fill:#000000;stroke-width:0" /><path
             d="m 1341.1,358.89 0,0.38 0,0.38 0,0.39 0,0.41 -0.1,0.84 0,0.88 -0.1,0.92 -0.1,0.95 -0.1,0.98 -0.2,1 -0.2,1.02 -0.2,1.04 -0.3,1.05 -0.3,1.06 -0.4,1.06 -0.3,1.07 -0.3,0.53 -0.2,0.53 -0.2,0.53 -0.3,0.53 c -3,6.13 -7.2,9.36 -7.7,9.36 -0.3,0 -0.5,-0.19 -0.5,-0.48 0,-0.16 0,-0.25 0.9,-1.16 4.9,-4.92 7.7,-12.84 7.7,-23.27 0,-8.51 -1.8,-17.28 -8,-23.56 -0.6,-0.59 -0.6,-0.7 -0.6,-0.84 0,-0.3 0.2,-0.5 0.5,-0.5 0.5,0 4.9,3.39 7.9,9.72 2.5,5.47 3.1,11 3.1,15.18 z"
             id="path30496"
             style="fill:#000000;stroke-width:0" /></g>      </g>
    </g>
    <g
       transform="matrix(0.34182382,0,0,0.34182382,211.21057,-9.8951322)"
       id="g30740">
      <g
         transform="matrix(1.0629921,0,0,-1.0629921,-186.02362,789.27165)"
         id="g30742"
         xml:space="preserve"
         style="font-style:normal;font-variant:normal;font-weight:normal;font-stretch:normal;letter-spacing:normal;word-spacing:normal;text-anchor:start;fill:none;stroke:#000000;stroke-linecap:butt;stroke-linejoin:miter;stroke-miterlimit:10.43299961;stroke-opacity:1;stroke-dasharray:none;stroke-dashoffset:0"><path
           d="m 1251.2,365.43 0,0.03 0,0.03 0.1,0.06 0,0.05 0,0.06 0,0.05 0,0.05 0,0.04 0,0.05 0,0.04 0,0.04 0.1,0.03 0,0.04 0,0.03 0,0.03 0,0.04 0,0.02 0,0.03 0,0.03 0,0.06 0,0.05 0,0.05 0,0.05 0,0.06 0,0.03 0,0.02 0,0.03 0,0.04 c 0,0.9 -0.7,1.34 -1.4,1.34 -0.5,0 -1.3,-0.3 -1.8,-1.05 -0.1,-0.25 -0.5,-1.78 -0.7,-2.68 -0.3,-1.3 -0.7,-2.64 -1,-3.99 l -2.2,-8.97 c -0.2,-0.75 -2.4,-4.23 -5.6,-4.23 -2.6,0 -3.1,2.19 -3.1,4.03 0,2.3 0.8,5.39 2.5,9.77 0.8,2.04 1,2.59 1,3.59 0,2.23 -1.6,4.08 -4.1,4.08 -4.7,0 -6.6,-7.22 -6.6,-7.67 0,-0.5 0.5,-0.5 0.7,-0.5 0.5,0 0.5,0.1 0.7,0.9 1.4,4.69 3.4,6.17 5.1,6.17 0.4,0 1.2,0 1.2,-1.59 0,-1.25 -0.5,-2.53 -0.8,-3.48 -2,-5.29 -2.9,-8.13 -2.9,-10.47 0,-4.43 3.1,-5.93 6,-5.93 2,0 3.7,0.85 5.1,2.24 -0.7,-2.58 -1.3,-5.03 -3.3,-7.67 -1.3,-1.69 -3.1,-3.14 -5.4,-3.14 -0.7,0 -3,0.15 -3.8,2.09 0.8,0 1.4,0 2.1,0.61 0.5,0.44 1,1.09 1,2.03 0,1.55 -1.3,1.75 -1.8,1.75 -1.2,0 -2.8,-0.8 -2.8,-3.23 0,-2.5 2.2,-4.35 5.3,-4.35 5.1,0 10.2,4.55 11.6,10.17 z"
           id="path30744"
           style="fill:#000000;stroke-width:0" /></g>    </g>
    <g
       transform="matrix(0.33425592,0,0,0.33425592,-193.05057,-22.084812)"
       id="g30958">
      <g
         transform="matrix(1.0629921,0,0,-1.0629921,-186.02362,789.27165)"
         id="g30960"
         xml:space="preserve"
         style="font-style:normal;font-variant:normal;font-weight:normal;font-stretch:normal;letter-spacing:normal;word-spacing:normal;text-anchor:start;fill:none;stroke:#000000;stroke-linecap:butt;stroke-linejoin:miter;stroke-miterlimit:10.43299961;stroke-opacity:1;stroke-dasharray:none;stroke-dashoffset:0"><path
           d="m 1221.4,362.93 0,0.01 0,0.02 0,0.02 0,0.01 0,0.02 0,0.02 0,0.02 0,0.02 0,0.02 -0.1,0.02 0,0.02 0,0.01 0,0.02 0,0.02 0,0.02 0,0.02 0,0.01 0,0.02 -0.1,0.02 0,0.01 0,0.02 0,0.01 0,0.01 -0.1,0.01 0,0.01 0,0.01 0,0.01 0,0 -0.1,0.01 0,0 0,0 0,0 0,0.01 0,0 0,0 -0.1,0 0,0 c -0.2,0 -0.2,-0.05 -0.7,-0.5 l -1.7,-1.99 c -1.3,1.86 -3.5,2.49 -5.6,2.49 -4.9,0 -9.3,-3.99 -9.3,-7.99 0,-0.51 0.1,-1.92 1.2,-3.2 1.1,-1.39 2.4,-1.7 4.8,-2.26 0.7,-0.18 2.5,-0.57 3,-0.71 1.1,-0.28 3.2,-1.04 3.2,-3.65 0,-2.82 -3,-6.13 -6.9,-6.13 -3.1,0 -6.8,1.08 -6.8,4.94 0,0.36 0.1,1.12 0.2,1.75 0.1,0.14 0.1,0.17 0.1,0.2 0,0.46 -0.5,0.46 -0.6,0.46 -0.5,0 -0.5,-0.07 -0.7,-0.69 l -1.7,-6.97 c -0.1,-0.14 -0.2,-0.36 -0.2,-0.53 0,-0.21 0.2,-0.42 0.5,-0.42 0.2,0 0.3,0.04 0.7,0.5 0.4,0.4 1.3,1.53 1.7,1.95 1.8,-2.03 4.6,-2.45 6.7,-2.45 5.2,0 9.5,4.53 9.5,8.64 0,1.54 -0.6,2.93 -1.4,3.73 -1.2,1.25 -1.8,1.39 -6.3,2.44 -0.7,0.17 -1.8,0.45 -2.2,0.56 -0.8,0.31 -2.3,1.19 -2.3,3.17 0,2.75 3.1,5.53 6.7,5.53 3.8,0 5.6,-2.12 5.6,-5.43 0,-0.46 -0.1,-1.25 -0.1,-1.57 0,-0.48 0.4,-0.48 0.6,-0.48 0.5,0 0.5,0.17 0.7,0.77 z"
           id="path30962"
           style="fill:#000000;stroke-width:0" /><path
           d="m 1248.6,363.33 0,0.11 0,0.11 0,0.11 0.1,0.11 0,0.12 0,0.12 0.1,0.25 0.1,0.25 0,0.25 0.1,0.25 0,0.24 0.1,0.12 0,0.11 0,0.11 0,0.11 0.1,0.11 0,0.1 0,0.09 0,0.09 0.1,0.08 0,0.08 0,0.07 0,0.07 0,0.05 0,0.05 0,0.04 0,0.04 c 0,0.9 -0.7,1.34 -1.4,1.34 -0.6,0 -1.5,-0.39 -1.9,-1.39 -0.1,-0.34 -2.5,-9.86 -2.8,-11.16 -0.4,-1.5 -0.4,-2.39 -0.4,-3.29 0,-0.55 0,-0.64 0,-0.89 -1.1,-2.64 -2.6,-4.19 -4.6,-4.19 -4,0 -4,3.69 -4,4.53 0,1.59 0.3,3.55 2.6,9.67 0.6,1.49 0.9,2.19 0.9,3.19 0,2.23 -1.7,4.08 -4.1,4.08 -4.8,0 -6.6,-7.22 -6.6,-7.67 0,-0.5 0.5,-0.5 0.6,-0.5 0.5,0 0.6,0.1 0.8,0.9 1.4,4.63 3.3,6.17 5,6.17 0.5,0 1.3,-0.04 1.3,-1.64 0,-1.25 -0.6,-2.64 -0.9,-3.48 -2.2,-5.88 -2.8,-8.17 -2.8,-10.06 0,-4.54 3.3,-6.29 7.1,-6.29 0.8,0 3.1,0 5.1,3.49 1.3,-3.19 4.8,-3.49 6.3,-3.49 3.7,0 5.9,3.15 7.2,6.13 1.7,3.89 3.3,10.56 3.3,12.95 0,2.75 -1.4,3.49 -2.2,3.49 -1.3,0 -2.5,-1.3 -2.5,-2.39 0,-0.64 0.3,-0.94 0.7,-1.35 0.6,-0.54 1.8,-1.84 1.8,-4.23 0,-1.69 -1.4,-6.58 -2.7,-9.11 -1.3,-2.64 -3,-4.39 -5.5,-4.39 -2.3,0 -3.7,1.5 -3.7,4.33 0,1.4 0.4,2.95 0.6,3.64 z"
           id="path30964"
           style="fill:#000000;stroke-width:0" /><path
           d="m 1272.9,361.04 0,0.04 0,0.04 0,0.04 0,0.04 0,0.04 0,0.04 0,0.04 0,0.03 0,0.03 0,0.04 0,0.03 0,0.03 0,0.03 0,0.03 -0.1,0.02 0,0.03 0,0.03 0,0.02 0,0.05 0,0.04 0,0.04 0,0.03 0,0.03 -0.1,0.03 0,0.02 0,0.03 0,0.02 -0.1,0.01 0,0.02 -0.1,0.01 0,0.01 0,0.01 0,0 -0.1,0.01 0,0 0,0 -0.1,0.01 0,0 0,0 0,0 -0.1,0 0,0.01 -0.1,0 0,0 0,0 -0.1,0 0,0 0,0 -0.1,0 0,0 -0.1,0 c -2.2,-2.2 -5.4,-2.23 -6.8,-2.23 v -1.25 c 0.8,0 3.1,0 5,0.96 v -17.76 c 0,-1.16 0,-1.61 -3.4,-1.61 h -1.4 v -1.25 c 0.7,0.03 5,0.14 6.2,0.14 1.1,0 5.5,-0.11 6.3,-0.14 v 1.25 h -1.3 c -3.5,0 -3.5,0.45 -3.5,1.61 z"
           id="path30966"
           style="fill:#000000;stroke-width:0" /></g>    </g>
    <g
       transform="matrix(0.31907201,0,0,0.31907201,-61.398675,63.952334)"
       id="g31190">
      <g
         transform="matrix(1.0629921,0,0,-1.0629921,-186.02362,789.27165)"
         id="g31192"
         xml:space="preserve"
         style="font-style:normal;font-variant:normal;font-weight:normal;font-stretch:normal;letter-spacing:normal;word-spacing:normal;text-anchor:start;fill:none;stroke:#000000;stroke-linecap:butt;stroke-linejoin:miter;stroke-miterlimit:10.43299961;stroke-opacity:1;stroke-dasharray:none;stroke-dashoffset:0"><path
           d="m 1212.4,359.96 0,0.04 0,0.05 0,0.04 0,0.05 0,0.04 0,0.04 0.1,0.04 0,0.04 0,0.07 0,0.07 0,0.06 0,0.06 0.1,0.06 0,0.05 0,0.05 0,0.04 0,0.04 0.1,0.04 0,0.04 0,0.03 0,0.03 0.1,0.02 0,0.03 0,0.02 0.1,0.02 0,0.02 0.1,0.01 0,0.02 0,0.01 0.1,0.01 0,0.01 0.1,0.01 0.1,0.01 0,0 0.1,0.01 0.1,0 c 0.1,0.04 1.3,0.04 2.1,0.04 2.1,0 3,0 3.8,-0.29 1.6,-0.48 1.7,-1.5 1.7,-2.75 0,-0.54 0,-1 -0.3,-2.81 l 0,-0.39 c 0,-0.34 0.2,-0.51 0.6,-0.51 0.5,0 0.6,0.31 0.6,0.86 l 1,6.65 c 0,0.5 -0.4,0.5 -1.1,0.5 h -21.4 c -0.9,0 -0.9,0 -1.2,-0.73 l -2.2,-6.17 c 0,-0.15 -0.2,-0.46 -0.2,-0.63 0,-0.14 0.1,-0.48 0.6,-0.48 0.5,0 0.6,0.17 0.8,0.82 2,5.58 3.1,5.93 8.4,5.93 h 1.5 c 1,0 1.1,-0.04 1.1,-0.35 0,-0.03 0,-0.2 -0.2,-0.73 l -4.6,-18.33 c -0.3,-1.28 -0.4,-1.64 -4,-1.64 -1.3,0 -1.6,0 -1.6,-0.77 0,-0.09 0.1,-0.48 0.6,-0.48 1,0 2,0.11 3,0.11 1,0 2,0.03 3,0.03 1,0 2.1,0 3.1,-0.03 1,-0.05 2,-0.11 2.9,-0.11 0.3,0 0.8,0 0.8,0.76 0,0.49 -0.3,0.49 -1.4,0.49 -0.7,0 -1.3,0.05 -2,0.08 -1.2,0.09 -1.3,0.23 -1.3,0.65 0,0.25 0,0.32 0.2,0.8 z"
           id="path31194"
           style="fill:#000000;stroke-width:0" /><path
           d="m 1249.8,363.33 0,0.11 0,0.11 0.1,0.11 0,0.11 0,0.12 0,0.12 0.1,0.25 0.1,0.25 0,0.25 0.1,0.25 0,0.24 0.1,0.12 0,0.11 0,0.11 0.1,0.11 0,0.11 0,0.1 0,0.09 0,0.09 0.1,0.08 0,0.08 0,0.07 0,0.07 0,0.05 0,0.05 0,0.04 0,0.04 c 0,0.9 -0.7,1.34 -1.4,1.34 -0.6,0 -1.5,-0.39 -1.9,-1.39 -0.1,-0.34 -2.4,-9.86 -2.8,-11.16 -0.4,-1.5 -0.5,-2.39 -0.5,-3.29 0,-0.55 0,-0.64 0.1,-0.89 -1.1,-2.64 -2.6,-4.19 -4.6,-4.19 -4,0 -4,3.69 -4,4.53 0,1.59 0.3,3.55 2.6,9.67 0.6,1.49 0.9,2.19 0.9,3.19 0,2.23 -1.7,4.08 -4.1,4.08 -4.8,0 -6.6,-7.22 -6.6,-7.67 0,-0.5 0.5,-0.5 0.6,-0.5 0.5,0 0.6,0.1 0.8,0.9 1.3,4.63 3.3,6.17 5,6.17 0.5,0 1.3,-0.04 1.3,-1.64 0,-1.25 -0.6,-2.64 -0.9,-3.48 -2.2,-5.88 -2.8,-8.17 -2.8,-10.06 0,-4.54 3.3,-6.29 7.1,-6.29 0.8,0 3.1,0 5.1,3.49 1.4,-3.19 4.8,-3.49 6.3,-3.49 3.7,0 5.9,3.15 7.2,6.13 1.7,3.89 3.3,10.56 3.3,12.95 0,2.75 -1.4,3.49 -2.2,3.49 -1.2,0 -2.5,-1.3 -2.5,-2.39 0,-0.64 0.3,-0.94 0.7,-1.35 0.6,-0.54 1.8,-1.84 1.8,-4.23 0,-1.69 -1.4,-6.58 -2.7,-9.11 -1.3,-2.64 -3,-4.39 -5.5,-4.39 -2.3,0 -3.7,1.5 -3.7,4.33 0,1.4 0.4,2.95 0.6,3.64 z"
           id="path31196"
           style="fill:#000000;stroke-width:0" /><path
           d="m 1274.1,361.04 0,0.04 0,0.04 0,0.04 0,0.04 0,0.04 0,0.04 0,0.04 0,0.03 0,0.03 0,0.04 0,0.03 0,0.03 0,0.03 0,0.03 -0.1,0.02 0,0.03 0,0.03 0,0.02 0,0.05 0,0.04 0,0.04 0,0.03 0,0.03 -0.1,0.03 0,0.02 0,0.03 0,0.02 -0.1,0.01 0,0.02 -0.1,0.01 0,0.01 0,0.01 0,0 -0.1,0.01 0,0 0,0 -0.1,0.01 0,0 0,0 0,0 -0.1,0 0,0.01 -0.1,0 0,0 0,0 -0.1,0 0,0 0,0 -0.1,0 0,0 -0.1,0 c -2.2,-2.2 -5.4,-2.23 -6.8,-2.23 v -1.25 c 0.8,0 3.1,0 5,0.96 v -17.76 c 0,-1.16 0,-1.61 -3.4,-1.61 h -1.4 v -1.25 c 0.7,0.03 4.9,0.14 6.3,0.14 1,0 5.4,-0.11 6.2,-0.14 v 1.25 h -1.3 c -3.5,0 -3.5,0.45 -3.5,1.61 z"
           id="path31198"
           style="fill:#000000;stroke-width:0" /></g>    </g>
    <g
       transform="matrix(0.35103449,0,0,0.35103449,107.09568,52.315436)"
       id="g31432">
      <g
         transform="matrix(1.0629921,0,0,-1.0629921,-186.02362,789.27165)"
         id="g31434"
         xml:space="preserve"
         style="font-style:normal;font-variant:normal;font-weight:normal;font-stretch:normal;letter-spacing:normal;word-spacing:normal;text-anchor:start;fill:none;stroke:#000000;stroke-linecap:butt;stroke-linejoin:miter;stroke-miterlimit:10.43299961;stroke-opacity:1;stroke-dasharray:none;stroke-dashoffset:0"><path
           d="m 1212.4,359.96 0,0.04 0,0.05 0,0.04 0,0.05 0,0.04 0,0.04 0.1,0.04 0,0.04 0,0.07 0,0.07 0,0.06 0,0.06 0.1,0.06 0,0.05 0,0.05 0,0.04 0,0.04 0.1,0.04 0,0.04 0,0.03 0,0.03 0.1,0.02 0,0.03 0,0.02 0.1,0.02 0,0.02 0.1,0.01 0,0.02 0,0.01 0.1,0.01 0,0.01 0.1,0.01 0.1,0.01 0,0 0.1,0.01 0.1,0 c 0.1,0.04 1.3,0.04 2.1,0.04 2.1,0 3,0 3.8,-0.29 1.6,-0.48 1.7,-1.5 1.7,-2.75 0,-0.54 0,-1 -0.3,-2.81 l 0,-0.39 c 0,-0.34 0.2,-0.51 0.6,-0.51 0.5,0 0.6,0.31 0.6,0.86 l 1,6.65 c 0,0.5 -0.4,0.5 -1.1,0.5 h -21.4 c -0.9,0 -0.9,0 -1.2,-0.73 l -2.2,-6.17 c 0,-0.15 -0.2,-0.46 -0.2,-0.63 0,-0.14 0.1,-0.48 0.6,-0.48 0.5,0 0.6,0.17 0.8,0.82 2,5.58 3.1,5.93 8.4,5.93 h 1.5 c 1,0 1.1,-0.04 1.1,-0.35 0,-0.03 0,-0.2 -0.2,-0.73 l -4.6,-18.33 c -0.3,-1.28 -0.4,-1.64 -4,-1.64 -1.3,0 -1.6,0 -1.6,-0.77 0,-0.09 0.1,-0.48 0.6,-0.48 1,0 2,0.11 3,0.11 1,0 2,0.03 3,0.03 1,0 2.1,0 3.1,-0.03 1,-0.05 2,-0.11 2.9,-0.11 0.3,0 0.8,0 0.8,0.76 0,0.49 -0.3,0.49 -1.4,0.49 -0.7,0 -1.3,0.05 -2,0.08 -1.2,0.09 -1.3,0.23 -1.3,0.65 0,0.25 0,0.32 0.2,0.8 z"
           id="path31436"
           style="fill:#000000;stroke-width:0" /><path
           d="m 1249.8,363.33 0,0.11 0,0.11 0.1,0.11 0,0.11 0,0.12 0,0.12 0.1,0.25 0.1,0.25 0,0.25 0.1,0.25 0,0.24 0.1,0.12 0,0.11 0,0.11 0.1,0.11 0,0.11 0,0.1 0,0.09 0,0.09 0.1,0.08 0,0.08 0,0.07 0,0.07 0,0.05 0,0.05 0,0.04 0,0.04 c 0,0.9 -0.7,1.34 -1.4,1.34 -0.6,0 -1.5,-0.39 -1.9,-1.39 -0.1,-0.34 -2.4,-9.86 -2.8,-11.16 -0.4,-1.5 -0.5,-2.39 -0.5,-3.29 0,-0.55 0,-0.64 0.1,-0.89 -1.1,-2.64 -2.6,-4.19 -4.6,-4.19 -4,0 -4,3.69 -4,4.53 0,1.59 0.3,3.55 2.6,9.67 0.6,1.49 0.9,2.19 0.9,3.19 0,2.23 -1.7,4.08 -4.1,4.08 -4.8,0 -6.6,-7.22 -6.6,-7.67 0,-0.5 0.5,-0.5 0.6,-0.5 0.5,0 0.6,0.1 0.8,0.9 1.3,4.63 3.3,6.17 5,6.17 0.5,0 1.3,-0.04 1.3,-1.64 0,-1.25 -0.6,-2.64 -0.9,-3.48 -2.2,-5.88 -2.8,-8.17 -2.8,-10.06 0,-4.54 3.3,-6.29 7.1,-6.29 0.8,0 3.1,0 5.1,3.49 1.4,-3.19 4.8,-3.49 6.3,-3.49 3.7,0 5.9,3.15 7.2,6.13 1.7,3.89 3.3,10.56 3.3,12.95 0,2.75 -1.4,3.49 -2.2,3.49 -1.2,0 -2.5,-1.3 -2.5,-2.39 0,-0.64 0.3,-0.94 0.7,-1.35 0.6,-0.54 1.8,-1.84 1.8,-4.23 0,-1.69 -1.4,-6.58 -2.7,-9.11 -1.3,-2.64 -3,-4.39 -5.5,-4.39 -2.3,0 -3.7,1.5 -3.7,4.33 0,1.4 0.4,2.95 0.6,3.64 z"
           id="path31438"
           style="fill:#000000;stroke-width:0" /><path
           d="m 1280,345.22 h -1.2 c -0.1,-0.76 -0.5,-2.83 -0.9,-3.17 -0.3,-0.2 -3,-0.2 -3.4,-0.2 h -6.5 c 3.7,3.23 4.9,4.2 7,5.84 2.6,2.06 5,4.22 5,7.53 0,4.22 -3.7,6.8 -8.2,6.8 -4.3,0 -7.2,-3.03 -7.2,-6.23 0,-1.79 1.5,-1.96 1.8,-1.96 0.9,0 1.9,0.6 1.9,1.85 0,0.62 -0.3,1.84 -2.1,1.84 1.1,2.47 3.5,3.23 5.1,3.23 3.5,0 5.3,-2.7 5.3,-5.53 0,-3.03 -2.1,-5.43 -3.3,-6.68 l -8.4,-8.3 c -0.3,-0.31 -0.3,-0.39 -0.3,-1.36 h 14.3 z"
           id="path31440"
           style="fill:#000000;stroke-width:0" /></g>    </g>
    <g
       transform="matrix(0.33425592,0,0,0.33425592,-23.58087,-20.299104)"
       id="g31684">
      <g
         transform="matrix(1.0629921,0,0,-1.0629921,-186.02362,789.27165)"
         id="g31686"
         xml:space="preserve"
         style="font-style:normal;font-variant:normal;font-weight:normal;font-stretch:normal;letter-spacing:normal;word-spacing:normal;text-anchor:start;fill:none;stroke:#000000;stroke-linecap:butt;stroke-linejoin:miter;stroke-miterlimit:10.43299961;stroke-opacity:1;stroke-dasharray:none;stroke-dashoffset:0"><path
           d="m 1221.4,362.93 0,0.01 0,0.02 0,0.02 0,0.01 0,0.02 0,0.02 0,0.02 0,0.02 0,0.02 -0.1,0.02 0,0.02 0,0.01 0,0.02 0,0.02 0,0.02 0,0.02 0,0.01 0,0.02 -0.1,0.02 0,0.01 0,0.02 0,0.01 0,0.01 -0.1,0.01 0,0.01 0,0.01 0,0.01 0,0 -0.1,0.01 0,0 0,0 0,0 0,0.01 0,0 0,0 -0.1,0 0,0 c -0.2,0 -0.2,-0.05 -0.7,-0.5 l -1.7,-1.99 c -1.3,1.86 -3.5,2.49 -5.6,2.49 -4.9,0 -9.3,-3.99 -9.3,-7.99 0,-0.51 0.1,-1.92 1.2,-3.2 1.1,-1.39 2.4,-1.7 4.8,-2.26 0.7,-0.18 2.5,-0.57 3,-0.71 1.1,-0.28 3.2,-1.04 3.2,-3.65 0,-2.82 -3,-6.13 -6.9,-6.13 -3.1,0 -6.8,1.08 -6.8,4.94 0,0.36 0.1,1.12 0.2,1.75 0.1,0.14 0.1,0.17 0.1,0.2 0,0.46 -0.5,0.46 -0.6,0.46 -0.5,0 -0.5,-0.07 -0.7,-0.69 l -1.7,-6.97 c -0.1,-0.14 -0.2,-0.36 -0.2,-0.53 0,-0.21 0.2,-0.42 0.5,-0.42 0.2,0 0.3,0.04 0.7,0.5 0.4,0.4 1.3,1.53 1.7,1.95 1.8,-2.03 4.6,-2.45 6.7,-2.45 5.2,0 9.5,4.53 9.5,8.64 0,1.54 -0.6,2.93 -1.4,3.73 -1.2,1.25 -1.8,1.39 -6.3,2.44 -0.7,0.17 -1.8,0.45 -2.2,0.56 -0.8,0.31 -2.3,1.19 -2.3,3.17 0,2.75 3.1,5.53 6.7,5.53 3.8,0 5.6,-2.12 5.6,-5.43 0,-0.46 -0.1,-1.25 -0.1,-1.57 0,-0.48 0.4,-0.48 0.6,-0.48 0.5,0 0.5,0.17 0.7,0.77 z"
           id="path31688"
           style="fill:#000000;stroke-width:0" /><path
           d="m 1248.6,363.33 0,0.11 0,0.11 0,0.11 0.1,0.11 0,0.12 0,0.12 0.1,0.25 0.1,0.25 0,0.25 0.1,0.25 0,0.24 0.1,0.12 0,0.11 0,0.11 0,0.11 0.1,0.11 0,0.1 0,0.09 0,0.09 0.1,0.08 0,0.08 0,0.07 0,0.07 0,0.05 0,0.05 0,0.04 0,0.04 c 0,0.9 -0.7,1.34 -1.4,1.34 -0.6,0 -1.5,-0.39 -1.9,-1.39 -0.1,-0.34 -2.5,-9.86 -2.8,-11.16 -0.4,-1.5 -0.4,-2.39 -0.4,-3.29 0,-0.55 0,-0.64 0,-0.89 -1.1,-2.64 -2.6,-4.19 -4.6,-4.19 -4,0 -4,3.69 -4,4.53 0,1.59 0.3,3.55 2.6,9.67 0.6,1.49 0.9,2.19 0.9,3.19 0,2.23 -1.7,4.08 -4.1,4.08 -4.8,0 -6.6,-7.22 -6.6,-7.67 0,-0.5 0.5,-0.5 0.6,-0.5 0.5,0 0.6,0.1 0.8,0.9 1.4,4.63 3.3,6.17 5,6.17 0.5,0 1.3,-0.04 1.3,-1.64 0,-1.25 -0.6,-2.64 -0.9,-3.48 -2.2,-5.88 -2.8,-8.17 -2.8,-10.06 0,-4.54 3.3,-6.29 7.1,-6.29 0.8,0 3.1,0 5.1,3.49 1.3,-3.19 4.8,-3.49 6.3,-3.49 3.7,0 5.9,3.15 7.2,6.13 1.7,3.89 3.3,10.56 3.3,12.95 0,2.75 -1.4,3.49 -2.2,3.49 -1.3,0 -2.5,-1.3 -2.5,-2.39 0,-0.64 0.3,-0.94 0.7,-1.35 0.6,-0.54 1.8,-1.84 1.8,-4.23 0,-1.69 -1.4,-6.58 -2.7,-9.11 -1.3,-2.64 -3,-4.39 -5.5,-4.39 -2.3,0 -3.7,1.5 -3.7,4.33 0,1.4 0.4,2.95 0.6,3.64 z"
           id="path31690"
           style="fill:#000000;stroke-width:0" /><path
           d="m 1278.8,345.22 h -1.2 c -0.1,-0.76 -0.4,-2.83 -0.9,-3.17 -0.3,-0.2 -2.9,-0.2 -3.4,-0.2 h -6.5 c 3.7,3.23 4.9,4.2 7,5.84 2.6,2.06 5,4.22 5,7.53 0,4.22 -3.7,6.8 -8.2,6.8 -4.3,0 -7.2,-3.03 -7.2,-6.23 0,-1.79 1.5,-1.96 1.8,-1.96 0.9,0 1.9,0.6 1.9,1.85 0,0.62 -0.3,1.84 -2.1,1.84 1.1,2.47 3.5,3.23 5.1,3.23 3.5,0 5.3,-2.7 5.3,-5.53 0,-3.03 -2.1,-5.43 -3.3,-6.68 l -8.3,-8.3 c -0.4,-0.31 -0.4,-0.39 -0.4,-1.36 h 14.4 z"
           id="path31692"
           style="fill:#000000;stroke-width:0" /></g>    </g>
    <path
       d="m 241.78571,167.36218 c -3.4855,2.42699 -6.32314,5.77553 -8.14542,9.61198 -1.82229,3.83644 -2.62487,8.15162 -2.30381,12.3867 0.54193,7.14855 4.39591,13.97792 10.23518,18.13704 5.83928,4.15912 13.55323,5.56922 20.48628,3.74485 6.93304,-1.82437 12.95385,-6.84865 15.9897,-13.34319 3.03585,-6.49454 3.02925,-14.33632 -0.0175,-20.82573"
       id="path31819"
       style="fill:none;stroke:#000000;stroke-width:2;stroke-linejoin:round;stroke-miterlimit:4;stroke-opacity:1;stroke-dasharray:none;stroke-dashoffset:0;marker-end:url(#Arrow1Send)" />
    <path
       d="m 435.10831,180.29666 c -1.74543,3.87201 -2.46181,8.20234 -2.05637,12.43018 0.40544,4.22784 1.93173,8.3431 4.38121,11.81283 4.13457,5.85669 10.9477,9.73931 18.09391,10.31125 7.14621,0.57194 14.49013,-2.17765 19.50357,-7.30218 5.01344,-5.12454 7.60142,-12.52696 6.87301,-19.65892 -0.72842,-7.13196 -4.75942,-13.85837 -10.70531,-17.86359"
       id="path31819-8"
       style="fill:none;stroke:#000000;stroke-width:2;stroke-linejoin:round;stroke-miterlimit:4;stroke-opacity:1;stroke-dasharray:none;stroke-dashoffset:0;marker-end:url(#Arrow1Send)" />
  </g>
</svg>
